<svg xmlns="http://www.w3.org/2000/svg" viewBox="0 0 100.26 36"><defs><style>.cls-1{fill:#fff}</style></defs><g id="レイヤー_2" data-name="レイヤー 2"><g id="header"><path class="cls-1" d="M5.68 30.82l-2 4.83H3l-2-4.82-.25 5H0l.35-5.91h1l2 4.79 2-4.79H6.4l.34 5.91h-.81zm5.7-.88v5.91h-.8v-5.91zm7.25.64h-3.55l-.21-.64h4.7v.6l-3.77 4.68h3.87v.63h-4.81v-.6zm9.58-.64v4c0 1.24-1 2-2.56 2s-2.52-.79-2.52-2v-4h.79v3.76c0 .9.41 1.66 1.75 1.66a1.51 1.51 0 001.74-1.66v-3.76zm4.62.84v5.07h-.75v-5.91h1l3.2 4.81v-4.81h.75v5.91h-.89zm10.91-.97a2.8 2.8 0 013 3.08 2.82 2.82 0 01-3 3.11 2.81 2.81 0 01-3-3.12 2.79 2.79 0 013-3.07zm0 5.55c1.28 0 2.19-.71 2.19-2.48 0-1.54-.7-2.44-2.19-2.44s-2.19.91-2.19 2.44c0 1.82.97 2.48 2.19 2.48zm15.04-2.07H57.4l-.21-.6h2.33v3a6.41 6.41 0 01-2 .31c-2.36 0-3.08-1.35-3.08-3s.67-3.17 3.06-3.17a5.82 5.82 0 011.63.25l-.13.65a4.41 4.41 0 00-1.47-.26c-1.7 0-2.24 1.16-2.24 2.53a2.05 2.05 0 002.26 2.35 3.8 3.8 0 001.18-.18zm3.65 2.56L65 29.94h.73l2.54 5.91h-.87l-.73-1.74h-2.73l-.7 1.74zm1.72-2.3h2.29l-1.14-2.81zm8.85-.72l3.14 3h-1.07l-2.89-2.91v2.91h-.8v-5.89h.8v2.87L75 29.94h1zm11.26-2.89v4c0 1.24-1 2-2.55 2s-2.53-.79-2.53-2v-4H80v3.76c0 .9.4 1.66 1.74 1.66s1.75-.76 1.75-1.66v-3.76zm4.74.63v1.94h2.4v.6H89v2.12h2.89v.62h-3.71v-5.91h3.46v.63zm7 .21v5.07h-.75v-5.91h1l3.2 4.81v-4.81h.75v5.91h-.89zM6.93 6.91h.94c.85 0 1 0 1 .24 0 .11-.12.23-.23.39a2.46 2.46 0 00-.13.46 22.5 22.5 0 01-2.46 6 16.33 16.33 0 01-5.42 5.22l-.4-.51A19 19 0 007 7.5H1.22L1 6.91zm30.18-5.45v10h-1.36v-1.13H33v3.48h3.3c.63 0 1.66-.32 1.86 0s-.12.59-.51.59H33v3.45l.59-.11c2.21-.4 5-.95 5-.95v.71S31.5 19.44 28 20.09a4.89 4.89 0 01-.88.11c-.34 0-.29 0-.69-1.52 1.6-.18 2.87-.36 4.54-.55l.58-.07V14.4h-4.48l-.24-.59h4.72v-3.48H29v1.51h-1.4V1.46zm-5.53.59H29v3.42h2.62zM29 9.73h2.62V6.09H29zm6.79-4.26V2.05h-2.85v3.42zm0 .62h-2.85v3.64h2.81zm9.42-4h-6.85l-.24-.59h8.24c.73 0 .93.05 1 .3a.41.41 0 01-.17.41c-.08.07-.17.12-.23.18l-.33.32A29.66 29.66 0 0143 5.74c.94.73 1.39 1.41 1.39 2a.66.66 0 01-.75.75c-.29 0-.58-.24-.85-.73a9.92 9.92 0 00-3.74-3.56l.27-.48a13.62 13.62 0 013.1 1.59 20.48 20.48 0 002.75-3.26zm28.92 3.04c.47 0 .73 0 .76.27s-.33.41-.56.66l-.39.43A16.14 16.14 0 0171.7 8.7l-.46-.34a12.87 12.87 0 001.33-2.62h-16v.35a4.9 4.9 0 01-.46 2.79 1.38 1.38 0 01-1.16.75.74.74 0 01-.85-.7 1 1 0 01.4-.81 4.53 4.53 0 001.32-3h11.1v-.09A24.62 24.62 0 0069 .67l1.68.62a.18.18 0 010 .28l-.25.43-.34.45a24.06 24.06 0 01-2 2.72zM100.23 1v20.8h-1.41v-1.63H82.5v1.61h-1.41V1zm-17.73.59v18h16.32v-18zM94 8.61h1.41v3.86c.17-.25.31-.5.51-.84 0 0 1 .62 1.13.77s.15.13.14.21-.08.16-.32.31a3.17 3.17 0 00-.31.22c-.69.56-1.33 1-2.19 1.59 2.06.78 3.07 1.61 3.07 2.39 0 .5-.19.75-.64.75a1.46 1.46 0 01-.93-.56 14.16 14.16 0 00-4.54-2.86v4.45h-1.27V14a20 20 0 01-6.46 3.67l-.32-.56a16.46 16.46 0 006.62-4.76H87v.73h-1.32V8.6H94zm-4-1.85V4.84h-5.15l-.26-.61h5.47V2.17c1.44 0 1.31.19 1.31.53v1.53h4.16c.47 0 1.32-.25 1.46.14s-.27.46-.48.46h-5.14v1.93h5c.39 0 1.28-.27 1.44.13s-.09.47-.42.47H83.92l-.27-.61zm4.16 5V9.22H87v2.5zm0 .6h-2.55l-.24.28v1.2c.8.17 1.57.42 2.37.67.56-.62 1.07-1.17 1.53-1.76h-1z"/><path class="cls-1" d="M63.54 17.35v-2.72h-9.45L53.8 14h9.73v-2.81c.19 0 .59.1 1.28.24l.13-.08a18 18 0 002.77-2.22h-9.93l-.27-.61h11.7c.4 0 1 0 1.09.3a.44.44 0 01-.3.55 2.18 2.18 0 00-.45.24 34.31 34.31 0 01-4.06 2.08l-.55.2V14h8c.91 0 1.7-.22 1.81.16a.35.35 0 01-.36.46H65v5.06c0 1.58-.58 2.12-1.38 2-.51-.07-.67-.56-1.32-.94a6.32 6.32 0 00-2.3-.85v-.59a13.13 13.13 0 013.12.78c.43.15.45-.38.45-1v-1.73zM42 17.46V9.82h-4.31l-.26-.6h9.74c.94 0 1 0 1.08.24s-.12.44-.28.62a2.21 2.21 0 00-.23.34A25.65 25.65 0 0145 14.89l-.54-.33a20.35 20.35 0 001.87-4.74h-3v9.7c0 1.73-.51 2.31-1.37 2.18-.56-.08-.73-.61-1.44-1a6.42 6.42 0 00-2.48-.95v-.64a14.19 14.19 0 013.38.85c.47.17.5-.42.5-1.07v-1.43zm-30.18.84v1.23c0 1.72-.51 2.29-1.37 2.17-.56-.08-.73-.61-1.44-1a6.69 6.69 0 00-2.48-.93v-.64a14.73 14.73 0 013.38.87c.47.17.5-.41.5-1.06V.66c1.6 0 1.42.59 1.42.59v1.13a20.66 20.66 0 002.53 7.74A28.08 28.08 0 0019 4.35l1.53 1a.18.18 0 010 .28l-.39.32-.43.37a36.5 36.5 0 01-5 4.49 23 23 0 007 6.83l-1.17 1.34A22.46 22.46 0 0114 11.64a21.86 21.86 0 01-2.26-6.35s.07 1.17.07 2.17V18.3zM56.71.37c2.45.86 3.68 1.87 3.68 3 0 .64-.29.94-.85.94-.35 0-.62-.27-.83-.78A6.46 6.46 0 0056.39.85zM61.83 0c2.17 1 3.26 2.14 3.26 3.28 0 .59-.29.91-.85.91s-.7-.29-.83-.85A6.1 6.1 0 0061.46.43z"/></g></g></svg>