<svg xmlns="http://www.w3.org/2000/svg" viewBox="0 0 354.93 127.44"><path d="M20.12 109.11l-7.17 17.08h-2.48l-6.9-17.05-.88 17.78H0L1.24 106h3.69l6.9 16.95L18.82 106h3.84l1.18 20.92H21l-.88-17.81zm17.34-3.1h2.81v20.92h-2.81zm28.47 2.23H53.37l-.74-2.24h16.63v2.13l-13.35 16.56h13.71v2.23h-17v-2.15l13.31-16.53zM99.85 106v14.2c0 4.38-3.45 7.16-9 7.16-5.44 0-8.92-2.78-8.92-7.16V106h2.81v13.3c0 3.18 1.43 5.88 6.17 5.88s6.09-2.7 6.09-5.88V106zm16.37 2.95v17.97h-2.66V106h3.69l11.32 17v-17h2.66v20.92h-3.14l-11.87-17.97zm38.61-3.43c7.87 0 10.74 5.23 10.74 10.92 0 6.84-3.93 11-10.74 11s-10.71-4.16-10.71-11c0-5.66 2.81-10.89 10.71-10.89m0 19.66c4.54 0 7.75-2.5 7.75-8.77 0-5.48-2.49-8.66-7.75-8.66s-7.74 3.21-7.74 8.66c0 6.43 3.42 8.77 7.74 8.77m53.26-7.36h-4.89l-.74-2.12h8.23v10.49a23.56 23.56 0 01-6.9 1.09c-8.35 0-10.89-4.8-10.89-10.57s2.36-11.2 10.83-11.2a20.76 20.76 0 015.78.87l-.51 2.29a16.16 16.16 0 00-5.2-.9c-6 0-7.93 4.09-7.93 9 0 4.66 2 8.31 8 8.31a13.78 13.78 0 004.18-.62zm12.91 9.07l9-20.92h2.57l9 20.92h-3.09l-2.57-6.15h-9.5l-2.51 6.15zm6.08-8.14h8.11l-4-9.94zm31.3-2.56l11.13 10.7h-3.75L255.5 116.6v10.32h-2.81V106h2.81v10.14L265.52 106h3.51l-10.65 10.22zM298.29 106v14.2c0 4.38-3.45 7.16-9.05 7.16-5.44 0-8.92-2.78-8.92-7.16V106h2.81v13.3c0 3.18 1.42 5.88 6.17 5.88s6.18-2.7 6.18-5.88V106zm16.61 2.21v6.9h8.47v2.12h-8.47v7.49h10.23v2.2h-12.99v-20.91h12.26v2.2h-9.5zm25.02.74v17.97h-2.66V106h3.69l11.32 17v-17h2.66v20.92h-3.15l-11.86-17.97zM24.54 24.48h3.3c3 0 3.74-.08 3.74.87 0 .38-.42.79-.8 1.38a7.59 7.59 0 00-.67 1.52 79 79 0 01-8.69 21.07A58 58 0 012.23 68.05l-1.42-1.8C12.82 57 21 43.76 24.91 26.55H4.31l-.76-2.07zM131.36 5.16v35.22h-4.82v-3.82h-9.83v12.31h11.69c2.23-.07 5.88-1.12 6.56.06s-.41 2.07-1.8 2.07h-16.45v12.18l2.08-.37c7.84-1.42 17.88-3.37 17.88-3.37v2.5s-25.14 6.88-37.52 9.17a15.77 15.77 0 01-3.12.4c-1.23 0-1 .08-2.46-5.36 5.66-.66 10.18-1.31 16.08-2l2.05-.15V51H95.82L95 48.87h16.7V36.56h-9.17v5.35h-4.82V5.16zm-19.57 2.1h-9.26v12.12h9.26zm-9.26 27.2h9.26V21.58h-9.26zm24-27.2h-9.93v12.12h9.93zm0 14.32h-9.93v12.88h9.93zM159.9 7.26h-24.1l-.8-2.1h29.16c2.59 0 3.3.21 3.49 1.08a1.49 1.49 0 01-.65 1.45c-.29.25-.61.42-.83.63L165 9.46a108.52 108.52 0 01-12.66 10.88c3.31 2.57 4.91 5 4.91 7.16 0 1.81-.85 2.67-2.65 2.67-1 0-2.07-.86-3-2.58-2.55-4.68-7-8.88-13.23-12.6l1-1.72a48 48 0 0111 5.63 74.1 74.1 0 009.53-11.64m102.54 10.9c1.63 0 2.56 0 2.68 1s-1.18 1.46-2 2.33c-.6.64-1.39 1.51-1.39 1.51a56.06 56.06 0 01-7.93 7.85l-1.61-1.23a45.42 45.42 0 004.7-9.26h-56.73v1.23c0 4.35.07 7.23-1.63 9.87a5 5 0 01-4.11 2.68 2.64 2.64 0 01-3-2.48 3.57 3.57 0 011.43-2.88c3-2.32 3.93-6.1 4.68-10.75 0 0 3.38.16 6.18.16h33.1l.19-.3a86 86 0 007.34-15.47l6 2.17a.63.63 0 01.15 1l-1.11 1.38-1.22 1.61c-2.27 3.86-4 5.49-7.21 9.62zM354.8 3.48v73.64h-5V71.4h-57.74v5.72h-5V3.42l67.74.06m-62.74 65.76h57.75V5.61h-57.75zm40.83-38.76h5v13.63c.58-.87 1.1-1.76 1.78-3 0 0 3.37 2.2 4 2.73.38.32.54.47.51.77s-.3.55-1.14 1.07a10.56 10.56 0 00-1.11.8c-2.44 2-4.72 3.57-7.75 5.61 7.28 2.76 10.87 5.71 10.87 8.47 0 1.77-.66 2.66-2.27 2.66-.85 0-2-.59-3.3-2-3.5-3.64-8.79-7-16.07-10.14v15.8h-4.63V49.44a70.2 70.2 0 01-22.87 13l-1.14-2c9.93-4.13 17.68-9.75 23.44-16.84h-10.3v2.56h-4.63v-15.7h4.18zm-14.08-6.55v-6.79h-18.43l-.95-2.14h19.38V7.68c5.1.1 4.63.69 4.63 1.88V15h14.74c1.67 0 4.66-.89 5.15.51.43 1.21-1 1.63-1.68 1.63h-18.21v6.79h17.86c1.37 0 4.54-.93 5.1.48.41 1-.33 1.67-1.5 1.67h-47.83l-.94-2.17zm14.74 8.7h-25.61v8.85h25.61zm0 11h-9.26s-.28.3-.85 1v4.23c2.84.59 5.58 1.48 8.41 2.36 2-2.16 3.78-4.13 5.39-6.2h-3.69z"/><path d="M224.94 61.41v-9.62h-33.45l-1-2.17h34.44v-10c.66.09 2.08.38 4.53.85l.48-.28a64.07 64.07 0 009.8-7.85h-35.21l-.95-2.17H245c1.4 0 3.55-.1 3.88 1.06a1.57 1.57 0 01-1.08 1.95 9.33 9.33 0 00-1.6.86 127.42 127.42 0 01-14.36 7.38l-1.94.7v7.52h28.54c3.22-.05 6-.78 6.39.56a1.25 1.25 0 01-1.29 1.63H230v17.88c0 5.6-2.06 7.49-4.86 7.08-1.82-.26-2.39-2-4.7-3.32a21.64 21.64 0 00-8.11-3v-2.1a46.53 46.53 0 0111.05 2.76c1.54.55 1.61-1.36 1.61-3.47v-6.2zm-76.38.39V34.74h-15.12l-.95-2.09H167c3.34 0 3.55.16 3.82.87s-.43 1.53-1 2.17a8.16 8.16 0 00-.82 1.21.41.41 0 000 .1 87.84 87.84 0 01-9.52 15.71l-1.89-1.15c2.84-5.82 5.48-11.27 6.61-16.81h-10.63v34.33c0 6.13-1.81 8.19-4.85 7.75-2-.29-2.58-2.17-5.08-3.63a23.41 23.41 0 00-8.78-3.34v-2.29a50.44 50.44 0 0112 3c1.67.6 1.74-1.49 1.74-3.8v-5zM41.84 64.77v4.37c0 6.07-1.82 8.12-4.86 7.67-2-.29-2.58-2.15-5.07-3.59a23.65 23.65 0 00-8.78-3.31v-2.26a51.07 51.07 0 0112 3c1.67.6 1.74-1.47 1.74-3.76V2.33c5.67.19 5 2.08 5 2.08v4a73 73 0 009 27.38q7.8-6.94 16.44-20.42l5.41 3.35a.63.63 0 01-.06 1l-1.37 1.12-1.52 1.34A130.81 130.81 0 0152 38.09c5.67 9 14 17.1 24.85 24.19L72.73 67C62.06 59 54.5 50.37 49.58 41.2a77.37 77.37 0 01-8-22.48s.24 4.16.24 7.69v38.36zM200.75 1.32c8.69 3 13 6.62 13 10.59 0 2.26-1 3.31-3 3.31-1.23 0-2.18-1-2.93-2.75A22.53 22.53 0 00199.61 3zM218.89 0c7.75 3.59 11.53 7.56 11.53 11.63 0 2.07-1 3.21-3 3.21-1.51 0-2.46-1-2.93-3-.85-3.4-3.12-6.81-6.9-10.31z"/></svg>