<svg xmlns="http://www.w3.org/2000/svg" viewBox="0 0 150 26.96"><defs><style>.cls-1{fill:#000}</style></defs><g id="レイヤー_2" data-name="レイヤー 2"><g id="side-navi"><path class="cls-1" d="M25 22.43l-1.47 3.51H23l-1.42-3.5-.18 3.65h-.56l.26-4.3h.76l1.42 3.49 1.43-3.49h.79l.25 4.3h-.59zm4.09-.64v4.3h-.57v-4.3zm5.28.46h-2.58l-.16-.46h3.42v.44l-2.74 3.4h2.82v.46h-3.5v-.44zm6.97-.46v2.92c0 .9-.71 1.47-1.86 1.47s-1.83-.57-1.83-1.47v-2.92h.58v2.74c0 .65.29 1.21 1.27 1.21a1.1 1.1 0 001.26-1.21v-2.74zm3.37.61v3.69h-.55v-4.3h.76l2.33 3.5v-3.5h.54v4.3h-.64zm7.94-.71a2 2 0 012.2 2.25 2.21 2.21 0 11-4.41 0 2 2 0 012.21-2.25zm0 4c.93 0 1.59-.52 1.59-1.81 0-1.12-.51-1.78-1.59-1.78s-1.6.66-1.6 1.78c0 1.37.71 1.86 1.6 1.86zm10.94-1.46h-1l-.15-.44h1.69V26a4.86 4.86 0 01-1.42.22A2 2 0 0160.47 24a2 2 0 012.23-2.3 4.14 4.14 0 011.19.18l-.1.47a3.38 3.38 0 00-1.07-.19c-1.23 0-1.63.84-1.63 1.85a1.49 1.49 0 001.65 1.7 2.71 2.71 0 00.85-.13zm2.66 1.86l1.84-4.3h.53l1.85 4.3h-.64l-.52-1.26h-2l-.51 1.26zm1.25-1.67h1.67l-.83-2zm6.43-.53l2.29 2.2h-.77L73.34 24v2.12h-.58v-4.3h.58v2.09l2.06-2.09h.72zm8.21-2.1v2.92c0 .9-.71 1.47-1.86 1.47s-1.84-.57-1.84-1.47v-2.92H79v2.74c0 .65.29 1.21 1.27 1.21a1.11 1.11 0 001.27-1.21v-2.74zm3.41.46v1.41h1.75v.44h-1.75v1.54h2.11v.45H85v-4.3h2.52v.46zm5.15.15v3.69h-.55v-4.3h.76l2.33 3.5v-3.5h.54v4.3h-.64zm9.3-.15v1.43h1.85v.44H100v1.54h2.24v.46h-2.81V21.8h2.68v.45zm7.56-.7v3.56a2.16 2.16 0 00.15.95l-.52.09a1.13 1.13 0 01-.16-.53 1.62 1.62 0 01-1.32.57c-.91 0-1.47-.54-1.47-1.61s.39-1.79 1.59-1.79a1.74 1.74 0 011.14.4v-1.56zm-1.63 1.68c-.78 0-1.08.52-1.08 1.34 0 .67.28 1.19 1 1.19a1.22 1.22 0 001.12-.61 1.73 1.73 0 000-.41v-.64a2 2 0 000-.44 1.34 1.34 0 00-1.04-.43zm4.13 2.25v.64h-.67v-.64zm2.55-.18A6 6 0 01112 27h-.43a6.79 6.79 0 00.43-1.66zm2.99-3.5v3.86h2.26v.46H115V21.8zm5.71 3.94v.38h-.37c-.57 0-1-.17-1-.76v-2.05h-.64v-.41h.7v-.77l.59-.12v.89h.85v.41h-.85v1.91c0 .4.12.52.51.52zm5.3-4.19v3.56a2.16 2.16 0 00.15.95l-.52.09a1.27 1.27 0 01-.17-.53 1.59 1.59 0 01-1.31.57c-.91 0-1.48-.54-1.48-1.61s.4-1.79 1.6-1.79a1.76 1.76 0 011.14.4v-1.56zM125 23.23c-.78 0-1.08.52-1.08 1.34 0 .67.28 1.19 1 1.19a1.25 1.25 0 001.12-.61 2.48 2.48 0 000-.41v-.64a2 2 0 000-.44 1.36 1.36 0 00-1.04-.43zm4.36 2.25v.64h-.67v-.64zM82.53 5h.68c.62 0 .76 0 .76.17s-.08.16-.16.29a1.48 1.48 0 00-.14.31 15.89 15.89 0 01-1.79 4.33 11.82 11.82 0 01-3.94 3.9l-.29-.37a13.78 13.78 0 004.95-8.17h-4.23L78.21 5zm21.96-3.94V8.3h-1v-.78h-2v2.53h2.4c.46 0 1.21-.23 1.35 0s-.09.43-.37.43h-3.38V13l.42-.08c1.62-.29 3.68-.69 3.68-.69v.52s-5.17 1.41-7.72 1.88a3.14 3.14 0 01-.64.08c-.25 0-.21 0-.5-1.1 1.16-.14 2.09-.27 3.3-.41h.43v-2.72h-3.28l-.18-.43h3.44V7.52h-1.88v1.09h-1V1.06zm-4 .43h-1.93V4h1.91zm-1.93 5.59h1.91V4.44h-1.91zM103.5 4V1.49h-2V4zm0 .46h-2v2.62h2zm6.85-2.95h-4.95l-.17-.43h6c.53 0 .68 0 .72.22a.31.31 0 01-.13.3l-.17.13a3.2 3.2 0 01-.24.23 21.33 21.33 0 01-2.6 2.24c.68.53 1 1 1 1.47s-.17.55-.54.55c-.22 0-.43-.17-.63-.53a7.11 7.11 0 00-2.72-2.59l.2-.35a9.67 9.67 0 012.25 1.16 14.85 14.85 0 001.98-2.42zM150 .72v15.13h-1v-1.17h-11.9v1.17h-1V.7zm-12.9.43v13.08H149V1.15zm8.39 5.12h1v2.8c.12-.18.23-.36.37-.62 0 0 .69.46.82.57s.11.09.11.15-.06.12-.23.22a1.58 1.58 0 00-.23.17 19.08 19.08 0 01-1.6 1.15c1.5.57 2.24 1.18 2.24 1.74 0 .37-.14.55-.47.55a1.06 1.06 0 01-.68-.41 10.26 10.26 0 00-3.3-2.08v3.24h-1v-3.59a14.45 14.45 0 01-4.7 2.68l-.24-.41a11.93 11.93 0 004.9-3.43h-2.12v.5h-1V6.26h6.08zm-2.89-1.35v-1.4h-3.79l-.2-.44h4v-1.5c1.05 0 1 .14 1 .38v1.12h3c.34 0 1-.18 1.06.11s-.2.33-.35.33h-3.74v1.4h3.67c.28 0 .93-.19 1.05.1s-.07.35-.31.35h-9.83l-.2-.45zm3 3.61V6.71h-5.27v1.82zm0 .44h-1.91l-.17.2V10c.58.12 1.15.31 1.73.49.41-.45.78-.85 1.11-1.28h-.76z"/><path class="cls-1" d="M108 12.7V7.14h-3.11l-.19-.43h7.09c.69 0 .73 0 .79.18s-.09.31-.2.45a.77.77 0 00-.17.25 18.06 18.06 0 01-2 3.23l-.39-.23a15.2 15.2 0 001.36-3.46H109v7.07c0 1.26-.37 1.69-1 1.59-.4 0-.53-.44-1-.74a4.83 4.83 0 00-1.8-.69v-.47a10.38 10.38 0 012.45.62c.35.13.36-.3.36-.78v-1zm-21.92.62v.9c0 1.24-.37 1.66-1 1.57-.41-.06-.54-.44-1-.74a5 5 0 00-1.8-.68v-.46a10 10 0 012.46.61c.34.12.35-.3.35-.77V.48c1.17 0 1 .43 1 .43v.82a15 15 0 001.85 5.63 20.61 20.61 0 003.38-4.19l1.11.69a.13.13 0 010 .2l-.28.23-.32.28a27.29 27.29 0 01-3.63 3.26 16.66 16.66 0 005.11 5l-.86 1a16.55 16.55 0 01-4.76-5.31A16.12 16.12 0 0186 3.85v9.47zm-72-9.59c.6 0 1.15-.12 1.27.2.06.16-.24.3-.41.48l-.28.31A11.81 11.81 0 0113 6.33l-.33-.25a9.9 9.9 0 001-1.9H2v.25a3.54 3.54 0 01-.34 2A1 1 0 01.82 7a.55.55 0 01-.63-.5.72.72 0 01.3-.59 3.32 3.32 0 001-2.21h8.04v-.06A17.29 17.29 0 0011.07.49l1.2.42a.13.13 0 010 .2c-.1.12-.44.65-.44.65-.52.76-.83 1.12-1.49 2h2.89c.37-.03.71-.02.85-.03z"/><path class="cls-1" d="M7.09 12.62v-2H.21L0 10.2h7.08V8.14l.92.18.1-.06a13.27 13.27 0 002-1.62H2.9l-.2-.44h8.52c.28 0 .73 0 .79.22a.32.32 0 01-.22.4 1.62 1.62 0 00-.33.17 24.61 24.61 0 01-3 1.52l-.4.15v1.54h5.35c.38 0 1.63-.19 1.82.11s-.13.34-.26.34H8.12v3.68c0 1.15-.42 1.54-1 1.46-.37-.06-.49-.41-1-.69a4.59 4.59 0 00-1.67-.62v-.43a9.64 9.64 0 012.27.56c.32.12.33-.28.33-.71v-1.28zM2.12.27C3.91.89 4.8 1.63 4.8 2.45c0 .46-.21.68-.62.68-.26 0-.45-.2-.6-.57A4.72 4.72 0 001.88.62zM5.85 0c1.59.74 2.37 1.55 2.37 2.39a.58.58 0 01-.62.66c-.31 0-.51-.21-.61-.62A4.47 4.47 0 005.58.31zm124.29 3.73c.6 0 1.15-.12 1.27.2.06.16-.24.3-.41.48l-.28.31a11.81 11.81 0 01-1.63 1.61l-.33-.25a8.85 8.85 0 001-1.9h-11.7v.25a3.54 3.54 0 01-.34 2 1 1 0 01-.84.55.54.54 0 01-.62-.51.71.71 0 01.29-.59 3.27 3.27 0 001-2.21h8.08v-.06a18 18 0 001.51-3.12l1.19.42a.13.13 0 010 .2c-.1.12-.45.65-.45.65-.52.76-.83 1.12-1.48 2h2.89c.37-.03.71-.02.85-.03z"/><path class="cls-1" d="M123.15 12.62v-2h-6.87l-.22-.45h7.08V8.14l.94.18.09-.06a12.79 12.79 0 002-1.62H119l-.2-.44h8.52c.29 0 .73 0 .79.22a.32.32 0 01-.22.4 1.28 1.28 0 00-.32.17 25.85 25.85 0 01-3 1.52l-.4.15v1.54h5.36c.38 0 1.62-.19 1.82.11s-.13.34-.27.34h-6.9v3.68c0 1.15-.42 1.54-1 1.46-.37-.06-.49-.41-1-.69a4.59 4.59 0 00-1.67-.62v-.43a9.64 9.64 0 012.27.56c.32.12.34-.28.34-.71v-1.28zM118.18.27c1.79.62 2.68 1.36 2.68 2.18 0 .46-.21.68-.62.68-.25 0-.45-.2-.6-.57A4.69 4.69 0 00118 .62zm3.73-.27c1.59.74 2.37 1.55 2.37 2.39 0 .43-.21.66-.62.66s-.51-.21-.6-.62a4.5 4.5 0 00-1.42-2.12zM21.33 7.45a25.49 25.49 0 01-2.47 5.17l-.39-.27a28.23 28.23 0 002.82-7.75h-2.45l-.14-.44h2.63V.4a2.72 2.72 0 01.92.13.17.17 0 01.09.15v3.48h1.44c.84 0 1.16-.13 1.38.11a.21.21 0 01-.2.33h-2.62v1.86c1.36 1 2.05 2 2.05 2.77 0 .43-.18.66-.55.66s-.44-.23-.52-.66a7.06 7.06 0 00-1-2.09v8.71h-1zm5.78.62l.44-.25A17.53 17.53 0 0029.72 11s.06-.08.06-.12a16.28 16.28 0 001.5-3.51c.39.18.74.34 1 .48a.09.09 0 01.05.13c-.09.22-.15.27-.28.61a15.19 15.19 0 01-1.68 3.1 13.65 13.65 0 004.6 3l-.81 1a14.61 14.61 0 01-4.28-3.22 11.9 11.9 0 01-5.53 3.49l-.28-.41a11.63 11.63 0 005.15-3.84 27.78 27.78 0 01-2.11-3.64zm-2.41.74a12 12 0 002.65-4.36 7.41 7.41 0 011 .47s.06 0 0 .1-.21.36-.36.65a9.33 9.33 0 01-3 3.45zm4.48-5.47V.41A4 4 0 0130 .5c.07 0 .13.05.13.15v2.69h2.76c.76 0 1.63-.19 1.88.1s0 .35-.2.35h-9.23l-.2-.45zm1.66 1.15a10.76 10.76 0 012.8 1.84 2.09 2.09 0 01.83 1.33c0 .45-.19.68-.59.68-.24 0-.47-.19-.65-.56a7.92 7.92 0 00-2.6-2.94zm7.47-.14c1.69.49 2.49 1.13 2.49 1.94 0 .46-.2.68-.61.68a.53.53 0 01-.55-.43 3.6 3.6 0 00-1.5-1.86zm5-.77L41 11.23l-.07.23a5.33 5.33 0 00-.2 1 2.56 2.56 0 00.12.68 5.71 5.71 0 01.23 1.55c0 .75-.27 1.14-.82 1.14s-.66-.19-.66-.6c0 0 0-.25.08-.7a7.92 7.92 0 00.12-1.28 1.65 1.65 0 00-1.48-1.86v-.46a4.15 4.15 0 00.75.08 1.12 1.12 0 001.09-.62 54.18 54.18 0 002.7-7.11zM39.6.59c1.73.43 2.6 1 2.6 1.84 0 .47-.21.68-.61.68s-.45-.19-.59-.54A3.54 3.54 0 0039.4.94zM48.5 8h3.31c1 0 2-.26 2.21.06.12.15 0 .37-.23.37h-5.45a.53.53 0 00-.1.21 37.15 37.15 0 01-2.6 4.94h.51c1.89-.07 3.69-.29 5.39-.46a18 18 0 00-2.33-2.75l.29-.37a13.84 13.84 0 013.64 3.39 2.73 2.73 0 01.57 1.39c0 .49-.22.72-.63.72-.24 0-.46-.25-.65-.76-.14-.32-.36-.75-.6-1.2-2.4.43-5.16.86-8.09 1.19l-.67.05a.15.15 0 01-.16-.11 9.91 9.91 0 01-.25-1l2-.06H45a25.34 25.34 0 002-5.23h-4.4L42.42 8h5V4.16H44l-.14-.45h3.61V.38a3.56 3.56 0 01.94.15.15.15 0 01.11.14v3h2.6c.94 0 1.71-.2 2 .1.11.12.08.35-.2.35H48.5zm16.16-6c0 5.59 2.57 9.66 7.72 12.16l-1 1.06a14.38 14.38 0 01-5.66-6A15.42 15.42 0 0164.53 5a14.36 14.36 0 01-2.25 6.49 12 12 0 01-5.65 4.08l-.26-.4A11.78 11.78 0 0062.1 9.7a17.82 17.82 0 001.46-7.53V.45a4.23 4.23 0 011 .15.14.14 0 01.1.14V2z"/></g></g></svg>