<svg xmlns="http://www.w3.org/2000/svg" viewBox="0 0 212 212"><g data-name="レイヤー 2"><path fill="#f6f6f6" d="M0 0h212v212H0z"/><path d="M26.2 129l-3.63 8.66h-1.26l-3.5-8.66-.44 9H16l.63-10.61h1.87L22 136l3.54-8.6h1.95l.6 10.61h-1.44zm10.22-1.56v10.61H35v-10.61zm13.02 1.14h-6.37l-.38-1.14h8.44v1.08l-6.77 8.4h7v1.13h-8.67V137zm17.2-1.14v7.2c0 2.22-1.75 3.63-4.59 3.63s-4.53-1.41-4.53-3.63v-7.2H59v6.74c0 1.62.72 3 3.13 3s3.13-1.37 3.13-3v-6.74zm8.3 1.5v9.11h-1.35v-10.61h1.87l5.74 8.62v-8.62h1.35v10.61H81zm19.58-1.74c4 0 5.45 2.65 5.45 5.53 0 3.47-2 5.58-5.45 5.58s-5.43-2.11-5.43-5.59c0-2.87 1.43-5.52 5.43-5.52zm0 10c2.3 0 3.93-1.27 3.93-4.45 0-2.78-1.26-4.39-3.93-4.39s-3.93 1.63-3.93 4.39c0 3.25 1.74 4.42 3.93 4.42zm27.01-3.75h-2.48l-.38-1.07h4.18v5.31a11.74 11.74 0 01-3.5.56c-4.24 0-5.52-2.44-5.52-5.36s1.19-5.68 5.49-5.68a10.64 10.64 0 012.93.44l-.25 1.16a8.24 8.24 0 00-2.63-.45c-3 0-4 2.07-4 4.54s1 4.21 4.06 4.21a7.07 7.07 0 002.12-.31zm6.55 4.6l4.54-10.61h1.31l4.56 10.61h-1.57l-1.3-3.12h-4.82l-1.28 3.12zm3.09-4.13h4.11l-2-5zm15.83-1.3l5.65 5.43h-1.9l-5.21-5.23v5.23h-1.42v-10.61h1.42v5.14l5.08-5.14h1.78zm20.27-5.18v7.2c0 2.22-1.75 3.63-4.58 3.63s-4.53-1.41-4.53-3.63v-7.2h1.43v6.74c0 1.62.72 3 3.13 3s3.13-1.37 3.13-3v-6.74zm8.43 1.12v3.5h4.3v1.08h-4.3v3.79h5.18v1.12h-6.58v-10.61h6.22v1.12zm12.69.38v9.11H187v-10.61h1.87l5.74 8.62v-8.62H196v10.61h-1.6zM28.44 86.1h1.68c1.53 0 1.89 0 1.89.44 0 .19-.21.39-.4.69a4 4 0 00-.34.78 39.77 39.77 0 01-4.41 10.69 29.3 29.3 0 01-9.73 9.49l-.72-.91c6.09-4.69 10.21-11.4 12.23-20.13H18.19l-.39-1.05zm54.18-9.8v17.86h-2.45v-1.93h-5v6.24h5.93c1.13 0 3-.57 3.33 0s-.21 1-.92 1h-8.32v6.2l1-.19c4-.72 9.07-1.71 9.07-1.71v1.27s-12.75 3.48-19 4.65a8.07 8.07 0 01-1.58.2c-.62 0-.53 0-1.24-2.72 2.87-.33 5.16-.66 8.15-1l1.05-.11v-6.53H64.6l-.44-1.06h8.49v-6.24H68v2.71h-2.45V76.3zm-9.92 1.07H68v6.14h4.7zM68 91.16h4.7v-6.53H68zm12.17-7.65v-6.14h-5v6.14zm0 1.12h-5v6.53h5zm16.92-7.26H84.87l-.43-1.07h14.79c1.31 0 1.67.1 1.77.55a.77.77 0 01-.31.74c-.15.12-.31.21-.42.31l-.59.58A54.81 54.81 0 0193.26 84c1.67 1.3 2.49 2.51 2.49 3.63A1.17 1.17 0 0194.41 89c-.53 0-1.06-.43-1.54-1.3a17.53 17.53 0 00-6.71-6.39l.48-.87a23.9 23.9 0 015.56 2.85 37.54 37.54 0 004.89-5.92zm52 5.52c.83 0 1.3 0 1.36.49s-.59.74-1 1.18l-.7.77a28.62 28.62 0 01-4 4l-.81-.62a22.93 22.93 0 002.38-4.7h-28.81v.62c0 2.21 0 3.67-.83 5A2.54 2.54 0 01114.6 91a1.35 1.35 0 01-1.54-1.26 1.82 1.82 0 01.73-1.46c1.49-1.17 2-3.09 2.37-5.45 0 0 1.71.08 3.14.08h16.78l.1-.15a44.52 44.52 0 003.72-7.84l3 1.1a.32.32 0 01.08.5l-.57.7-.61.82a43.57 43.57 0 01-3.66 4.87zm46.84-7.44v37.34h-2.53v-2.89h-29.28v2.89h-2.54V75.42zm-31.81 1.08v32.27h29.28V76.53zm20.7 12.61h2.54v6.92c.3-.44.56-.89.91-1.51 0 0 1.71 1.11 2 1.38s.28.24.26.39-.15.28-.58.55a5.65 5.65 0 00-.56.4c-1.23 1-2.39 1.81-3.93 2.85 3.69 1.4 5.51 2.89 5.51 4.29 0 .9-.33 1.35-1.15 1.35a2.62 2.62 0 01-1.67-1 25.06 25.06 0 00-8.15-5.15v8h-2.35v-8.85a35.62 35.62 0 01-11.6 6.59l-.57-1a29.54 29.54 0 0011.88-8.54h-5.22v1.3h-2.35v-8h15zm-7.14-3.32v-3.44h-9.35l-.47-1.1h9.82v-3.7c2.59 0 2.35.35 2.35 1v2.75h7.48c.84 0 2.36-.45 2.61.26s-.49.83-.86.83H180v3.44h9.06c.69 0 2.3-.47 2.59.24.2.51-.17.85-.77.85h-24.22l-.48-1.1zm7.48 8.9v-4.49h-13v4.49zm0 1.09h-4.7s-.14.15-.43.5v2.15c1.44.3 2.83.75 4.26 1.2 1-1.1 1.92-2.1 2.74-3.15h-1.87z"/><path d="M130.08 104.83V100h-17l-.53-1.1h17.47v-5.13c.34 0 1 .19 2.3.43l.24-.15a31.94 31.94 0 005-4h-17.84l-.47-1.05h21c.71 0 1.8 0 2 .54a.81.81 0 01-.55 1 4.24 4.24 0 00-.81.44 66 66 0 01-7.28 3.74l-1 .36v3.81H147c1.64 0 3.05-.4 3.24.28a.63.63 0 01-.65.83h-17v9c0 2.85-1.05 3.8-2.47 3.6-.92-.14-1.21-1-2.38-1.69a11 11 0 00-4.11-1.54v-1.07a23.65 23.65 0 015.6 1.4c.78.28.82-.69.82-1.76v-3.14zm-38.74.17V91.31h-7.67l-.48-1.07h17.5c1.69 0 1.79.08 1.93.44s-.22.77-.49 1.1a3.48 3.48 0 00-.42.62 44.92 44.92 0 01-4.82 8l-1-.58a37.56 37.56 0 003.35-8.52h-5.36v17.41c0 3.11-.92 4.15-2.46 3.93-1-.15-1.31-1.1-2.58-1.84a11.77 11.77 0 00-4.45-1.7V108a25.65 25.65 0 016.06 1.53c.85.31.89-.75.89-1.92V105zm-54.12 1.53v2.22c0 3.08-.92 4.11-2.46 3.89-1-.15-1.31-1.09-2.58-1.82a11.87 11.87 0 00-4.45-1.68V108a25.9 25.9 0 016.07 1.52c.84.3.88-.75.88-1.91V74.87c2.88.09 2.54 1 2.54 1v2a37.19 37.19 0 004.56 13.89 51 51 0 008.33-10.26l2.74 1.7a.31.31 0 010 .5l-.7.57-.77.68a65.76 65.76 0 01-9 8A41.28 41.28 0 0055 105.27l-2.11 2.4a40.7 40.7 0 01-11.75-13.09 39.4 39.4 0 01-4-11.41s.12 2.12.12 3.91v19.45zm80.59-32.17c4.41 1.53 6.61 3.35 6.61 5.36 0 1.15-.53 1.68-1.53 1.68-.63 0-1.1-.48-1.49-1.39a11.4 11.4 0 00-4.17-4.79zm9.19-.67c3.93 1.82 5.85 3.83 5.85 5.89a1.42 1.42 0 01-1.54 1.63c-.76 0-1.24-.53-1.48-1.53a11 11 0 00-3.5-5.23z"/></g></svg>