<svg xmlns="http://www.w3.org/2000/svg" viewBox="0 0 212 212"><g data-name="レイヤー 2"><path fill="#eaeaea" d="M0 0h212v212H0z"/><path d="M51 51.16h8.3V62.5h9.06V51.16h8.34v32.38h-8.34V70.45H59.3v13.1H51zm30.55 16.46q0-7.82 3.61-12.17t10.06-4.36c4.4 0 7.8 1.44 10.19 4.28s3.56 6.85 3.56 12a23.23 23.23 0 01-1.56 9.18 12.58 12.58 0 01-4.5 5.57 13 13 0 01-7.36 2 14.44 14.44 0 01-7.41-1.72 12.4 12.4 0 01-4.76-5.46 21.08 21.08 0 01-1.82-9.3zm8.18 0c0 3.23.49 5.54 1.49 7a5 5 0 008.13 0c1-1.38 1.45-3.86 1.45-7.42 0-3-.51-5.2-1.52-6.6a4.78 4.78 0 00-4.09-2.07 4.66 4.66 0 00-4 2.11q-1.45 2.15-1.46 7.01zm24.1-16.49h8.31v24.44h13v8h-21.31v-32.4zm25 0h22.08v6.92h-13.75v5.15h13.73l.07 6.59h-13.8v6.39H161v7.32h-22.15V51.17zM51 91.74h8.21v31.94H51V91.73zm14.15 0h7.64l10 17.67V91.74h7.72v31.94h-7.75l-9.92-17.55v17.55h-7.69zM133 91.2v8.8h-7v-8.8h-6.44v3.11-3.11H97v6.21h6.58v18.92H110V97.41h9.51v18.92H126v-10.16h7v10.16h6.46V91.21m4.27-.23h17.18l-.1 5.36h-10.6v4H161v5.13h-10.79v5H161l-.1 5.7h-17.1zm-92.7 39.34h7.45l2.67 17.13 3.92-17.13h7.42l3.93 17.12 2.7-17.12h7.39L81 160.91h-7.73l-4.46-19.26-4.41 19.26H51zm54 25.55h-8.9l-1.24 5h-8l9.53-30.59H105l9.53 30.59h-8.21zm-1.62-6.6l-2.81-11-2.76 11zm13.59-19h7.83v23.07h12.23v7.52H117zm23.84 0h7.85v23.07h12.23v7.52h-20.06zM97.14 121h63.77v2.35H97.16z" fill="#656464"/></g></svg>