<svg xmlns="http://www.w3.org/2000/svg" viewBox="0 0 212 212"><g data-name="レイヤー 2"><path fill="#eaeaea" d="M0 0h212v212H0z"/><path d="M54.07 80.32h-.19l-12.1-17.73v26.84h-3.65V56.24h3.8L54 74.35l12.11-18.11h3.79v33.19h-3.74V62.54zm55.04 9.11h-4l-3.88-8.77h-18.1l-3.93 8.77h-3.84L90.48 56H94zM92.19 60.36L84.6 77.29h15.13zM126 89.43h-11.48V56.24H126c10.43 0 17.64 7.16 17.64 16.54S136.47 89.43 126 89.43zm0-29.73h-7.77V86H126c8.39 0 13.75-5.69 13.75-13.09S134.43 59.7 126 59.7zm48.74-.05h-20.25V71h18.11v3.4h-18.11V86H175v3.42h-24.25V56.24h24zM41.88 140.5v14.93h-3.75v-33.19h3.75V137H61v-14.76h3.74v33.19H61V140.5zm30.82-14.94v-4h4.17v4zm.24 29.87v-24.51h3.65v24.51zm32.67 0h-4.37L92.47 144l-5 5v6.4h-3.63v-34.58h3.65v23.9l13.23-13.8h4.55L95 141.44zm14.08.57A12.57 12.57 0 01107 143.25 12.78 12.78 0 11119.69 156zm0-22.38c-5.31 0-9 4.22-9 9.53s3.88 9.58 9 9.58 9-4.22 9-9.48-3.83-9.63-9-9.63z" fill="#140112"/><path d="M72.36 106.79a.33.33 0 00-.43.11 24.53 24.53 0 01-2.57 3.28 29.36 29.36 0 01-3.36 3.11 27.78 27.78 0 01-3.39 2.32 6 6 0 01-2.86.92 1.65 1.65 0 01-1.14-.32 1.52 1.52 0 01-.31-1.21 7.56 7.56 0 01.71-2.72 36.71 36.71 0 011.75-3.6c.69-1.26 1.41-2.49 2.17-3.68s1.41-2.16 1.93-2.92a1.9 1.9 0 00.36-.86 1 1 0 00-.25-.61.72.72 0 00-.54-.32 3.68 3.68 0 00-1.53.75c-.74.5-1.6 1.13-2.57 1.89s-2 1.6-3.07 2.5-2.06 1.76-3 2.57a34 34 0 012-3.89 8.08 8.08 0 001-2 1.09 1.09 0 00-.36-.79 1.12 1.12 0 00-.78-.35.73.73 0 00-.65.35q-.86 2-2.07 4.54c-.81 1.68-1.59 3.29-2.35 4.81l-2 2.47a3.21 3.21 0 00-.9 1.74 5 5 0 00.25 1c.17.53.37.79.61.79s.24-.14.43-.43c.81-1.24 1.49-2.36 2-3.35s1.2-2.1 2-3.29a20.91 20.91 0 011.67-1.78c.69-.67 1.41-1.32 2.14-2s1.47-1.25 2.18-1.82a18.37 18.37 0 011.86-1.36c.23-.14.39-.13.46 0a.78.78 0 010 .61 28.35 28.35 0 01-1.67 3.28c-.69 1.19-1.36 2.36-2 3.5s-1.2 2.23-1.68 3.25a6.43 6.43 0 00-.6 2.72 1.16 1.16 0 00.71 1.25 4.66 4.66 0 001.57.25 8.89 8.89 0 003.82-.93 21.49 21.49 0 003.85-2.35 27.17 27.17 0 003.57-3.25 37 37 0 003-3.6c.24-.29.27-.47.08-.54m-18.46-.14q0-.18-.39.18a27.65 27.65 0 01-2.21 2.57 31.49 31.49 0 01-3.11 2.85 23 23 0 01-3.39 2.32 6.52 6.52 0 01-3.14 1 1.89 1.89 0 01-1.25-.39 1.55 1.55 0 01-.46-1.25 7.1 7.1 0 01.46-2.14 27 27 0 011.25-3c.53-1.07 1.11-2.18 1.75-3.32s1.27-2.19 1.89-3.14a1.08 1.08 0 00.25-.43 1.41 1.41 0 00.11-.43q0-.21-.36-.21a3.91 3.91 0 00-1.17.39 2.63 2.63 0 00-1.25 1c-.38.52-.9 1.31-1.54 2.35s-1.28 2.14-1.92 3.28a37.06 37.06 0 00-1.68 3.32 6.74 6.74 0 00-.72 2.54 2.13 2.13 0 00.33 1.25 2.53 2.53 0 00.78.75 2.42 2.42 0 001 .35 7.63 7.63 0 001 .07 8.52 8.52 0 002.72-.5 12.48 12.48 0 002.92-1.42 33.56 33.56 0 004.07-3.21 33 33 0 003.93-4.22 1 1 0 00.1-.53m-4.25-16.38a2.07 2.07 0 00-1.66.86 2.84 2.84 0 00-.7 1.8.76.76 0 00.86.86 2.21 2.21 0 001.68-.86 2.59 2.59 0 00.74-1.71.82.82 0 00-.92-.93" fill="#231815"/></g></svg>