<svg xmlns="http://www.w3.org/2000/svg" viewBox="0 0 212 212"><g data-name="レイヤー 2"><path fill="#f6f6f6" d="M0 0h212v212H0z"/><path d="M55.26 46.78v1.31h4.59v-1.32h-4.59m0-1.3h4.59v-7.86h3.92v1.31h-1.3V56h1.3v1.29h-3.92V49.4h-4.59v7.85h-3.94V56h1.32V39h-1.32v-1.39h3.94zm32.44-7.86h5.24v1.31h-1.31v6.55h1.31v1.3h-1.31v1.32h1.31v1.31h-1.31v6.54h1.31v1.31H87.7v-1.31H89V49.4h-1.3v-1.31H89v-1.32h-1.3v-1.3H89v-6.55h-1.3v-1.31zM76.56 66.84h5.25v1.3h-1.32v6.54h1.32V76h-1.32v1.31h1.32v1.31h-1.32v6.56h1.32v1.31h-5.25v-1.31h1.31v-6.56h-1.31v-1.31h1.31V76h-1.31v-1.32h1.31v-6.54h-1.31v-1.3zm44.1-20.06v1.3h2.62a3.92 3.92 0 013.93 3.92v3.93h1.3v1.31h-3.91v-6.53a1.32 1.32 0 00-1.32-1.31h-2.62v7.85h-3.94v-1.31H118v-17h-1.31v-1.33h3.94v7.86"/><path d="M120.66 46.77h2.62a3.92 3.92 0 003.93-3.93v-3.92h1.3v-1.31h-3.91v6.55a1.32 1.32 0 01-1.32 1.31h-2.62M158.16 76h-3.93v1.3h3.93zm-1.3 9.16a1.3 1.3 0 001.3-1.3v-5.25h-3.93v5.25a1.3 1.3 0 001.3 1.3h1.33zm1.3-10.48v-5.24a1.31 1.31 0 00-1.32-1.31h-1.3a1.31 1.31 0 00-1.31 1.31v5.24zm-2.62 11.81a3.94 3.94 0 01-3.93-3.95V70.76a3.92 3.92 0 013.93-3.93h1.3a3.93 3.93 0 013.95 3.93v11.78a4 4 0 01-3.95 3.95zM66.8 170.46h9.19v1.31H66.8zm0 2.62h9.19v1.32H66.8zM73.36 160v-2.62a1.31 1.31 0 00-1.31-1.31h-1.3a1.33 1.33 0 00-1.33 1.31V160zm-3.94 1.29v2.63a1.32 1.32 0 001.32 1.31h1.31a1.32 1.32 0 001.32-1.31v-1.32H76a3.93 3.93 0 01-3.94 3.93h-1.3a3.93 3.93 0 01-4-3.92v-3.94a3.94 3.94 0 014-3.93h1.3a3.94 3.94 0 013.94 3.93v2.61zm88.74-121.05a1.33 1.33 0 00-1.32-1.32h-1.3a1.32 1.32 0 00-1.31 1.32v6.54a1.31 1.31 0 001.3 1.31h1.31a1.31 1.31 0 001.32-1.31zm-2.62 9.16a3.93 3.93 0 01-3.95-3.92v-3.93a3.94 3.94 0 013.95-3.94h1.3a3.93 3.93 0 013.94 3.94v3.93a3.92 3.92 0 01-3.94 3.92zm-3.94 3.93h9.19v1.3h-9.19zm0 2.62h9.19v1.3h-9.19zm-51.14 71.95a1.33 1.33 0 00-1.32-1.32h-1.3a1.33 1.33 0 00-1.32 1.32v6.54a1.32 1.32 0 001.32 1.31h1.31a1.31 1.31 0 001.31-1.31zm-2.62 9.16a3.93 3.93 0 01-3.94-3.91v-3.94a3.94 3.94 0 013.94-3.94h1.3a3.94 3.94 0 014 3.94v3.94a3.93 3.93 0 01-4 3.91zM93.9 141h9.19v1.3H93.9zm0 2.62h9.19v1.3H93.9zM75.28 98.69A1.33 1.33 0 0074 97.35h-1.34a1.34 1.34 0 00-1.32 1.34v6.53a1.31 1.31 0 001.31 1.31H74a1.31 1.31 0 001.31-1.31zm-2.62 9.16a3.93 3.93 0 01-3.94-3.92v-4A3.94 3.94 0 0172.66 96H74a3.93 3.93 0 013.9 4v4a3.92 3.92 0 01-3.9 3.85zm-3.94 3.93h9.18v1.31h-9.18zm0 2.62h9.18v1.3h-9.18zM57.77 69.46a1.32 1.32 0 00-1.32-1.32h-1.31v6.55h2.63zm2.63 0v5.23H63v-6.55h-1.3a1.31 1.31 0 00-1.3 1.32M57.77 76h-2.62v1.31h2.62zm2.63 1.31H63V76h-2.6zm-1.31-9.48a3.94 3.94 0 012.61-1H67v1.3h-1.36v17H67v1.31h-4v-7.82h-2.6v5.24h-2.63v-5.24h-2.63v7.87h-3.93v-1.31h1.32v-17h-1.32v-1.3h5.25a4 4 0 012.63 1m81.99 18.61V68.14h1.3v-1.3h-3.92v12.29l-4.59-12.29h-3.81v1.3h1.32v17.02h-1.32v1.33H134V74.14l4.6 12.35h2.48zm-79.39 14.79V100a3.92 3.92 0 00-3.93-3.92h-1.3a3.93 3.93 0 00-3.94 3.92v11.81a3.93 3.93 0 003.94 3.92h1.3a3.92 3.92 0 003.93-3.92v-2.63h-2.62v3.92a1.28 1.28 0 01-1.3 1.3h-1.32a1.3 1.3 0 01-1.31-1.3V98.67a1.33 1.33 0 011.32-1.32h1.3a1.31 1.31 0 011.31 1.32v2.61z"/><path d="M51.21 106.52h5.25v1.32h-5.25zm0-2.62h5.25v1.31h-5.25zm37.15 10.48h3.93v-7.85h3.94v1.31h-1.31v7.86h-10.5v-1.32h1.31V97.35h-1.31v-1.3h5.24v1.3h-1.3v17.03zm16.83 0h3.94v-7.85h3.93v1.31h-1.32v7.86h-10.49v-1.32h1.32V97.35h-1.32v-1.3h5.25v1.3h-1.31v17.03zm16.45 58.7h3.94v-7.86h3.94v1.31h-1.32v7.87h-10.49v-1.32h1.31v-17.02h-1.31v-1.32h5.25v1.32h-1.32v17.02zM97.92 77.31a1.3 1.3 0 001.3-1.31H96.6a1.31 1.31 0 00-1.31 1.31zm-5 1.3a3.93 3.93 0 013.94-3.91h2.63v-6.57h-3.95v3.94h-2.63v-5.23h9.19v7.86a3.91 3.91 0 01-3.93 3.91h-2.63v6.55h3.94v-5.23h2.62v6.56h-9.19zm18.67 3.93h9.19v1.32h-9.19zm0 2.62h9.19v1.32h-9.19zm9.2-18.33v7.85a4 4 0 01-4 3.95h-1.3a3.93 3.93 0 01-3.93-3.93v-7.87h2.61V76a1.31 1.31 0 001.32 1.3h1.31a1.31 1.31 0 001.31-1.3v-9.17zm-7.14 68.92h2.63v-1.3h-2.63zm1.31 9.17h-5.24v-1.31H111v-17h-1.31v-1.3h10.49v5.23h-2.62v-3.93h-3.94v6.55h5.26v3.93h-5.26v6.55H115zM142 105.37h-3.93v1.32H142zm-1.32 9.18a1.33 1.33 0 001.32-1.32V108h-3.9v5.24a1.31 1.31 0 001.3 1.32h1.32zm-1.06-17.29a1.3 1.3 0 00-1.3 1.3v5.25h6.55v7.86a3.93 3.93 0 01-3.87 3.93h-1.32a3.92 3.92 0 01-3.93-3.93V99.88a3.92 3.92 0 013.91-3.88H141a3.94 3.94 0 013.94 3.93v1.32h-2.63v-2.69a1.3 1.3 0 00-1.31-1.3zm-81.85 58.8h-1.31v-1.32h5.25v1.32H60.4v14.4a4 4 0 01-3.95 3.94h-1.3a3.93 3.93 0 01-3.94-3.93v-5.24h3.94v1.3h-1.32v5.23a1.32 1.32 0 001.32 1.32h1.3a1.32 1.32 0 001.32-1.31zM93 166.44h-2.6V173h1.3a1.3 1.3 0 001.3-1.32zm-7.87 5.24a1.31 1.31 0 001.32 1.32h1.32v-6.55h-2.63zm5.26-6.55H93v-1.31h-2.6zm-2.63-1.3h-2.62v1.31h2.63zm7.88 6.55a3.94 3.94 0 01-4 3.93h-5.18a3.93 3.93 0 01-3.94-3.93V156H81.2v-1.31h3.94v7.86h2.63v-7.86h2.63v7.86H93v-7.86h4V156h-1.3zm59.89-6.47h-2.62v1.31h2.62zm5.25-9.17v1.31h-1.32l-1.59 10.47h-2.34v6.56h1.31v1.32h-5.25v-1.32h1.32v-6.56h-2.3L149 156.05h-1.32v-1.31h3.92l1.23 7.86h2.83l1.23-7.86zm-23.66 7.86h2.62a1.32 1.32 0 001.32-1.31v-3.93a1.31 1.31 0 00-1.32-1.3h-2.62zm2.62-7.86a4 4 0 013.94 3.94V160a3.91 3.91 0 01-3.94 3.89h-2.62v1.32h2.62a4 4 0 013.94 4v3.91H145v1.31h-3.93v-6.53a1.34 1.34 0 00-1.31-1.34h-2.62v7.88h-3.94v-1.31h1.31v-17h-1.31v-1.32zm-18.1-48.21h2.63v-1.31h-2.63zm4 7.85v-3.92h2.61v5.24h-10.54v-1.32H119v-17h-1.31v-1.3h10.51v5.23h-2.61v-3.96h-4v6.56h5.25v3.93h-5.25v6.54zm28.59-7.85h2.62v-1.31h-2.62zm3.93 7.85v-3.92h2.62v5.24h-10.49v-1.32h1.31v-17h-1.31v-1.3h10.49v5.23h-2.62v-3.96h-3.93v6.56h5.24v3.93h-5.24v6.54zm-52.72 49.54v1.3h2.62v-1.32h-2.62m3.93 9.18v-3.94H112v5.26h-10.5v-1.32h1.31v-17h-1.31v-1.32H112V160h-2.63v-3.93h-3.93v6.54h5.25v3.92h-5.25v6.56zM51.21 32.3h109.57v.68H51.21zm0 29.29h109.57v.66H51.21zm0 29.22h109.57v.68H51.21zm0 29.21h109.57v.68H51.21zm0 29.23h109.57v.68H51.21zm0 29.28h109.57v.69H51.21zm0-152.53h4.02v4.01h-4.02zM60 26h4.02v4.01H60zm8.8 0h4.02v4.01H68.8zm8.79 0h4.03v4.01h-4.03zm8.8 0h4.03v4.01h-4.03zm8.81 0h4.01v4.01H95.2zm8.79 0h4.02v4.01h-4.02zm8.79 0h4.02v4.01h-4.02zm8.8 0h4.02v4.01h-4.02zm8.79 0h4.02v4.01h-4.02zm8.79 0h4.03v4.01h-4.03zm8.81 0h4.02v4.01h-4.02zm8.79 0h4.02v4.01h-4.02zM51.21 181.99h4.02V186h-4.02zm8.79 0h4.02V186H60zm8.8 0h4.02V186H68.8zm8.79 0h4.03V186h-4.03zm8.8 0h4.03V186h-4.03zm8.8 0h4.01V186h-4.01zm8.79 0H108V186h-4.02zm8.8 0h4.02V186h-4.02zm8.8 0h4.02V186h-4.02zm8.79 0h4.02V186h-4.02zm8.79 0h4.03V186h-4.03zm8.81 0h4.02V186h-4.02zm8.79 0h4.02V186h-4.02zM76.49 132.6a3.11 3.11 0 00.47-.73c.08-.32-.2-.61-.21-.93 0-.53.47-.89 1-1 .45.15 1 .12 1.33.51s.41.74.09 1-.78.49-.85.94a.87.87 0 00.39.91.49.49 0 00.41 0 2.13 2.13 0 00.73-.49 1.85 1.85 0 01.44-.34c.13 0 .29-.17.43-.05a1.09 1.09 0 01.28 1 2.31 2.31 0 01-.42 1.08 1 1 0 01-.16.19.77.77 0 00-.11.55.78.78 0 00.37.61 1 1 0 001.26-.38c.09-.11 0-.27.15-.39s.29-.36.38-.48a1.69 1.69 0 00.25-1.68 1.84 1.84 0 00-.09-.25 3.86 3.86 0 00-.6-1.57 6.25 6.25 0 00-.57-.58 7.54 7.54 0 00-1-1 1.08 1.08 0 00-.26-.14c-.33-.17-.56-.48-.92-.56a2.92 2.92 0 00-.51 0c-.24 0-.53-.28-.4-.48a.87.87 0 01.73-.39.28.28 0 01.13 0h.19a4.89 4.89 0 01.53.09c.17 0 .34 0 .52.09a4.76 4.76 0 01.91.5 4 4 0 011.21.95 7.62 7.62 0 011.18 1.74c.16.36.25.72.39 1.11s.06.6.19.89c0 .06.06.15.12.14s.28-.24.45-.3a.6.6 0 01.72.42.68.68 0 010 .45 2.93 2.93 0 01-.66 1.13 3.75 3.75 0 01-.69.49 2.39 2.39 0 00-.57.49.74.74 0 00.25 1s.08.1.14.07.14 0 .19 0h.09c.18.31.49.57.52.94a1.79 1.79 0 01-.06.62.58.58 0 01-.16.31c-.25.22-.46.52-.77.59a.82.82 0 01-.78-.17 10.2 10.2 0 01-.93-1.42 1.16 1.16 0 00-.42-.4c-.09 0-.2 0-.29-.06s-.06-.09-.11-.09a1 1 0 00-.57.22v.07a.33.33 0 01-.06.1c0 .28 0 .53-.07.81-.06.57.23 1.15-.14 1.62a1.54 1.54 0 01-.64.41.28.28 0 01-.2 0 3 3 0 01-1.12-.3l-.14-.11a1.43 1.43 0 01-.63-.7.88.88 0 01.13-.72 5.5 5.5 0 01.72-.89 5.76 5.76 0 00.59-.5.41.41 0 00.12-.31.62.62 0 00-.2-.41.65.65 0 00-.39-.12 1.52 1.52 0 00-.5.15.92.92 0 00-.28.19c-.11.16-.32.17-.48.2a.54.54 0 01-.33-.08c-.3-.21-.61-.6-.41-1s.36-.43.51-.68a1.42 1.42 0 00.11-1c0-.18-.27-.22-.42-.22a2.22 2.22 0 00-.59.18c-.15 0-.18.19-.28.27s-.45.26-.54.54c0 .06-.13.07-.16.15-.13.44-.42.79-.4 1.23a1.3 1.3 0 010 .39 2.36 2.36 0 00.07 1.51 7.73 7.73 0 001.22 1.94c.14.15.29.33.52.29a4.27 4.27 0 001.33.67 1.32 1.32 0 01.61.41.41.41 0 010 .4.55.55 0 01-.56.27c-.28 0-.52-.2-.83-.19a.67.67 0 01-.35-.17 9.66 9.66 0 00-1.17-.75 4.25 4.25 0 01-1-1c-.08-.07-.2-.1-.26-.19a8.08 8.08 0 01-1-1.72 1 1 0 010-.3 6 6 0 00.08-1.52.33.33 0 00-.33-.3 1.09 1.09 0 00-.5.16.38.38 0 01-.37 0 .79.79 0 01-.35-.94c.15-.38.65-.55 1-.83a5.39 5.39 0 011.17-.6 1 1 0 00.49-.45.84.84 0 000-.42.33.33 0 00-.29-.25c-.38-.05-.83-.08-1-.47s0-.46.07-.71a.73.73 0 01.27-.38c.33-.26.72-.61 1.16-.37 0 0 0 .08.06.1a1.21 1.21 0 01.64 1 .62.62 0 00.73.43.35.35 0 00.2-.18m82.9-1.56a7.61 7.61 0 00-2.08 0 3.23 3.23 0 00-.65.2c-.59.16-1.19 0-1.76.19a.92.92 0 01-.26.07 17.79 17.79 0 01-2.73 0 .5.5 0 01-.38-.17 1.25 1.25 0 01-.19-.53v.05c-.32-.55.32-1.05.85-1.11a8.75 8.75 0 011.33-.21 40.3 40.3 0 015.15.12v.06h.95a.69.69 0 00.6-.43 2.23 2.23 0 00.11-.73c-.06 0-.11 0-.15-.06a1.91 1.91 0 00-1-.36 16.55 16.55 0 00-2.44 0l-.88.11c-.71.09-1.38 0-2.08.1-.44.05-.87 0-1.31 0a7.08 7.08 0 00-1.59.14.76.76 0 00-.5.57c-.1.32-.07.65-.16 1a3.78 3.78 0 000 1.64 1 1 0 00.51.89.55.55 0 00.25.1 8.85 8.85 0 001.53.09c.38 0 .87-.2 1.26-.27a2.41 2.41 0 011-.05c1 .2 1.78-.21 2.79 0a3.2 3.2 0 001.11.1c.14 0 .33 0 .35.18a2.73 2.73 0 010 1.36.34.34 0 01-.3.15 11.31 11.31 0 01-3-.13c-.54-.11-1.09-.11-1.65-.18s-1.36-.14-2.05-.19a3.18 3.18 0 00-1 0 .52.52 0 00-.33.11 1.67 1.67 0 00-.45 1.22c0 .33-.12.65-.13 1a4 4 0 00.2 1.06.89.89 0 00.4.56c.94.45 1.95.09 3 .16.85.07 1.66 0 2.49 0a23.46 23.46 0 012.36.12.4.4 0 01.22.21 1.3 1.3 0 01.06.89.46.46 0 01-.36.35.67.67 0 00-.2 0 1 1 0 01-.38.09h-2.53c-.56 0-1.11-.07-1.67-.14a22.67 22.67 0 00-2.73-.06.78.78 0 00-.64.43 1.44 1.44 0 00-.1.72c0 .55-.21 1.27.33 1.56a.71.71 0 00.66-.07c.45-.28.21-.85.35-1.29.58 0 1.28-.28 1.76.14a1.88 1.88 0 00.07 1 .49.49 0 00.52.31.81.81 0 00.54-.31 2.59 2.59 0 00.29-1.13c0-.13.21 0 .32-.07.3-.08.61.11.93 0 .16.26 0 .55.12.81s.11.34.26.43.28.19.44.14a.79.79 0 00.47-.7c.06-.56.52-1 1.07-.78a.66.66 0 01.36.27c.12.19 0 .43.11.63a.68.68 0 00.39.39.78.78 0 00.56 0 .8.8 0 00.35-.55c0-.37.12-.7.15-1.06a10.92 10.92 0 000-2.68c0-.1-.13-.17-.2-.25s-.16-.35-.3-.49a.75.75 0 00-.8-.08c-.16.06-.33-.1-.5-.11a7.32 7.32 0 00-.94 0 41.25 41.25 0 01-5-.14c-.42-.05-1-.07-1.14-.58a.27.27 0 010-.2c.18-.27.15-.58.41-.77s.72-.06 1.08-.1l.32-.05a3.14 3.14 0 011.18.06l.24.06h.56c.74.15 1.43.08 2.17.27h.53c.34.08.68.06 1 .11v.1c.44 0 1 0 1.25-.38a2.6 2.6 0 00.4-1.67 13.37 13.37 0 00-.2-1.86c-.06-.27-.3-.38-.49-.53s-.24 0-.36 0m-104.96-1.21c-.19.23-.41.41-.42.72a3.63 3.63 0 00.1 1.18c0 .16.21.24.24.33s.17.14.23.24l.21.34a2.41 2.41 0 00.87.51 5.9 5.9 0 001.87.52 1.64 1.64 0 00.73 0c.13 0 .29.08.42 0 .38-.08.71 0 1.11-.12a3.13 3.13 0 001.2-.74 2.59 2.59 0 00.41-.4 2.64 2.64 0 00.52-2.45 2 2 0 00-.22-.46c-.15-.18-.19-.43-.39-.55a1 1 0 00-.4-.18.67.67 0 00-.6.06c-.23.19-.22.24-.32.29s-.22.17-.23.25a11.88 11.88 0 01-.15 1.45c0 .17 0 .3-.08.46a.87.87 0 01-.45.42 2 2 0 01-1.39.09c-.32-.09-.72-.08-1-.31a1.11 1.11 0 01-.35-.46 2 2 0 010-.76c0-.22.18-.46.09-.66s-.19-.43-.44-.45a3 3 0 00-.9.06c-.24 0-.51.15-.56.38a.58.58 0 01-.1.21m9.49 10.79c.06.19 0 .43 0 .62a3.79 3.79 0 01-.11 1.74.63.63 0 01-.4.43c-.42.14-.52-.41-.51-.74a21.78 21.78 0 000-3.33c-.08-.71 0-1.41-.14-2.12a.57.57 0 00-.13-.27.41.41 0 00-.53 0c-.19.16-.19.43-.26.65a2.64 2.64 0 00-.1.93c0 .9-.11 1.78 0 2.67a15.28 15.28 0 010 2.14.55.55 0 01-.28.48.38.38 0 01-.15 0 .74.74 0 01-.39-.51 2.37 2.37 0 010-.46c.09-.81 0-1.61 0-2.42v-.62a17.14 17.14 0 00-.05-2.68c0-.14-.1-.28-.25-.28-.5 0-.5.59-.57 1 0 .19-.07.35-.12.53a17.17 17.17 0 000 2c-.11 1.08.23 2.16-.06 3.24a1.21 1.21 0 01-.21.31c0 .05-.08.13-.16.09a1.2 1.2 0 01-.27-.28 1.47 1.47 0 01-.17-.45c-.06-.17.05-.33.06-.49.08-1.07 0-2.12 0-3.19v-.2c0-.39 0-.79-.06-1.2 0-.11-.08-.25-.1-.35a2.69 2.69 0 00-.18-.87.27.27 0 00-.33-.12.91.91 0 00-.44.49 5.2 5.2 0 00-.06.69c0 .17-.2.3-.23.48a3.39 3.39 0 00.07 1c.06.65-.21 1.32 0 1.95a1.87 1.87 0 01-.07.73c-.08.52 0 1-.1 1.54 0 .15-.17.32-.33.29s-.29-.2-.48-.21v-.08a6.73 6.73 0 010-1.42h-.06a4.62 4.62 0 01.09-1 12.9 12.9 0 00.1-2.4v-.14c-.06-.3 0-.59 0-.89a.73.73 0 00-.67-.64.87.87 0 00-.7.4 1.38 1.38 0 00-.19.56v.39c-.07.32-.05.61-.11.92 0 .09-.06.21-.06.3 0 1.21-.09 2.41-.09 3.62a.46.46 0 010 .09.82.82 0 00-.41.25s-.09.05-.12 0a1.17 1.17 0 01-.34-.6s0-.12-.07-.1.06-.25.06-.38c0-.93.07-1.86.13-2.8v-.56a3 3 0 00-.2-1.81s0-.09-.09-.06c-.17-.28-.59-.16-.78 0s-.26.57-.35.89c-.15.58-.23 1.12-.36 1.73s0 1.08-.08 1.62c0 .1-.07.18-.08.27a5.42 5.42 0 00.06 1.14c0 .06-.06.09-.1.13s-.29.31-.44.21-.18-.44-.36-.64c-.06 0 0-.13 0-.18a3.57 3.57 0 01-.1-1.25 10.93 10.93 0 000-1.28c.06-.79 0-1.28.08-1.77s0-.94 0-1.43a1.19 1.19 0 01.14-.31c.1-.19.09-.44.24-.62s.25 0 .36-.11.1-.15.19-.15c.57-.06 1.14 0 1.72 0a5.55 5.55 0 001.61-.15.61.61 0 01.19 0 .55.55 0 00.27-.65.87.87 0 00-.31-.4.84.84 0 00-.44-.19 2.22 2.22 0 01-1-.35 5.89 5.89 0 01-1.29-1.14c-.08-.1-.28-.18-.32-.33-.08-.38 0-.77-.06-1.18a1.63 1.63 0 01-.08-.58s.09-.08.11-.14a7.52 7.52 0 01.29-.71c.13-.26.32-.47.46-.72a3.5 3.5 0 01.23-.35 1.63 1.63 0 01.36-.42c.28-.18.51-.35.79-.51a.5.5 0 01.41-.07c.19 0 .36 0 .53.08s.34.29.52.42l.22.17a2.74 2.74 0 001.47.73.39.39 0 00.13.06.61.61 0 00.43 0c.13-.09.28-.22.4-.32s0 .12 0 0a2.59 2.59 0 01.47-.63.92.92 0 01.58-.29 2.58 2.58 0 011.45.26 1.32 1.32 0 01.53.45 6.27 6.27 0 01.71.85 3.08 3.08 0 01.39 1.2 3.41 3.41 0 01-.68 2 1.85 1.85 0 01-.32.44 2.65 2.65 0 01-.67.46 8.9 8.9 0 01-.76.49c-.33.14-.67.21-1 .32a1.16 1.16 0 00-.55.46c-.14.23.12.49.34.52s.67.11 1 .11c.63 0 1.26-.14 1.9-.16a3 3 0 00.72-.12.44.44 0 01.15 0c.25.07.35.31.49.51s0 .45 0 .67c-.06.85.17 1.63.09 2.47 0 .28-.07.55-.11.84a2.54 2.54 0 000 .87m71.19-.87a3.79 3.79 0 00.95 1.13.93.93 0 00.46.24 3.5 3.5 0 00.65.08h.54a3.61 3.61 0 001-.1 9.93 9.93 0 00.91-.58c.11-.08-.15.17-.1.07a1.65 1.65 0 01.26-.32 2.73 2.73 0 00.55-.79 1.67 1.67 0 00.23-.44c0-.11.08-.21.11-.32a5 5 0 000-2.14 2.6 2.6 0 00-.21-.65c-.05-.1-.13-.22-.18-.34a17.12 17.12 0 01-.81-2 9.32 9.32 0 01-.31-1.39 1.76 1.76 0 01.09-1.08 6.05 6.05 0 00.4-.93 2.22 2.22 0 01.23-.43 1.43 1.43 0 00.19-1.29.42.42 0 00-.66 0 1.25 1.25 0 00-.33.48c-.12.31-.07.64-.16.94s-.15.5-.24.74a.43.43 0 01-.23.26.55.55 0 01-.72-.47 3 3 0 00-.65-1.86.4.4 0 00-.53 0 .65.65 0 00-.25.68c0 .19.11.36.17.55a8.69 8.69 0 01.52 1.35 3.73 3.73 0 01-.57 2.8 7.6 7.6 0 01-1.46 1.11s0 .15-.06.14c-.19-.06-.36.12-.56.12a12.5 12.5 0 01-1.37 0 3.19 3.19 0 01-1.16-.47c-.37-.23-.54-.57-.91-.81-.07-.05-.08-.15-.1-.2a1.84 1.84 0 00-.27-.74c-.05-.06.05-.14.05-.24v.18a2.62 2.62 0 010-.28 7 7 0 01.18-1.5c.25-.2.4-.47.66-.66s.28-.28.47-.32.39-.1.58-.13a2.18 2.18 0 011.08.12 1 1 0 01.45.46v.14a2 2 0 01.3 1.79.63.63 0 01-.32.4 1.76 1.76 0 01-1 .16c-.19 0-.26-.19-.37-.33a.89.89 0 01-.18-.69c0-.11.12-.21.05-.31s0-.08-.07-.13-.26-.22-.44-.17a.7.7 0 00-.43.36.35.35 0 01-.08.11c-.12.26-.27.6-.11.86a2.48 2.48 0 00.56.83 4.4 4.4 0 00.39.26 2.21 2.21 0 001.89-.08c.06 0 .1-.1.14-.13a1.86 1.86 0 00.72-.85 2.57 2.57 0 00.38-1.69 5.79 5.79 0 00-.18-.63 2.53 2.53 0 00-1-1.21 3.67 3.67 0 00-.79-.4 2.47 2.47 0 00-1.36.15 3.75 3.75 0 00-.81.23 2.82 2.82 0 00-.64.34 4.7 4.7 0 00-1.16 1.5 2.28 2.28 0 00-.25 1 5 5 0 00.24 2s.08.08.11.12c.09.2.08.42.18.6a.59.59 0 01.1.16c0 .12.1.23.15.35s.31.28.37.48.17.63.31.92a1.09 1.09 0 01.19.53 1 1 0 00.1.24.37.37 0 010 .18v-.06a2.08 2.08 0 01-.07.82c-.07.2-.18.38-.26.56a2.11 2.11 0 01-.16.34 2.16 2.16 0 000 2.54c.21.22.63 0 .68-.31a2.27 2.27 0 01.34-.76 2.75 2.75 0 00.12-.57c.07-.27.21-.63.56-.53a16.45 16.45 0 01.64 1.56.75.75 0 00.26.36c.19.11.56.17.64-.08.25-.87-.26-1.66-.39-2.52a2.84 2.84 0 01.11-1.26 4.82 4.82 0 011.09-1.78c.09-.12.14-.12.36-.4a1.55 1.55 0 01.67-.32 4.21 4.21 0 01.48-.12 2.81 2.81 0 011 0 1.42 1.42 0 01.53.2 3.07 3.07 0 00.63.43c.16.05.26.18.4.25a1.06 1.06 0 01.49.81c.09.39.09.69.16 1.07a2.45 2.45 0 010 1 1.75 1.75 0 01-.65.94 1.1 1.1 0 01-.72.31c-.83 0-1.6-.06-2-.93a2 2 0 01-.26-1.12c0-.13 0-.34.12-.44s.12-.24.17-.3a2.44 2.44 0 01.61-.34.59.59 0 01.43-.06 1.36 1.36 0 01.81.59c.15.29.08.63.19.94s.26.19.44.15.13 0 .17-.1a.94.94 0 000-.09c.08-.13.2-.22.23-.37a.35.35 0 000-.25c-.05-.08-.18-.22-.11-.26s-.06-.19-.07-.31c-.07-.52-.51-.79-.87-1.09a1.71 1.71 0 00-.48-.21.67.67 0 00-.35-.08 3.27 3.27 0 00-.54 0 1.77 1.77 0 00-.65.31 3 3 0 00-.3.32 4.91 4.91 0 00-.31.44 3 3 0 00-.31.83v.75a.75.75 0 000 .33c.08.22.2.41.26.63a.5.5 0 00.08.14"/></g></svg>