<svg xmlns="http://www.w3.org/2000/svg" viewBox="0 0 212 212"><g data-name="レイヤー 2"><path fill="#f6f6f6" d="M0 0h212v212H0z"/><path d="M29.07 188.42a5.67 5.67 0 00.07 1h-.83a4.59 4.59 0 00.08-1v-5.09H27a6.62 6.62 0 00-1 .07v-.73a8.69 8.69 0 001 .05h3.43a8.7 8.7 0 001-.05v.73a6.66 6.66 0 00-1-.07h-1.36zm7.55-.1a3.16 3.16 0 00.78-2.26 3.12 3.12 0 00-.77-2.25 2.19 2.19 0 00-1.54-.61c-1.41 0-2.33 1.13-2.33 2.86s.93 2.86 2.34 2.86a2.12 2.12 0 001.52-.6m1.5-2.26c0 2.13-1.19 3.48-3 3.48s-3-1.35-3-3.48 1.19-3.47 3-3.47 3 1.36 3 3.47m5.7 2.39a7.72 7.72 0 00.83 1h-1a4.94 4.94 0 00-.52-.76L41 186l-1 1v1.43a5.57 5.57 0 00.06 1h-.81a5.52 5.52 0 00.07-1v-4.71a6 6 0 00-.07-1h.81a5.44 5.44 0 00-.06 1v2.44l2.67-2.7a3.25 3.25 0 00.61-.73h1l-.23.22a4.77 4.77 0 00-.39.39l-.29.3-1.9 1.89zm3.58.96a5.83 5.83 0 00.07-1v-1.81l-2-3.11a7.21 7.21 0 00-.53-.77h1a3.62 3.62 0 00.43.81l1.46 2.47 1.53-2.44a3.53 3.53 0 00.41-.81h1a6.4 6.4 0 00-.54.77l-2 3.12v1.81a4.84 4.84 0 00.07 1zm7.96-1.09a3.16 3.16 0 00.78-2.26 3.12 3.12 0 00-.78-2.25 2.15 2.15 0 00-1.53-.61c-1.41 0-2.34 1.13-2.34 2.86s.93 2.86 2.34 2.86a2.13 2.13 0 001.53-.6m1.5-2.26c0 2.13-1.19 3.48-3 3.48s-3-1.35-3-3.48 1.2-3.47 3-3.47 3 1.36 3 3.47m8.82-1.44a2 2 0 00-.42-.77 1.9 1.9 0 00-1.52-.64c-1.43 0-2.32 1.1-2.32 2.85s.9 2.85 2.32 2.85a2 2 0 001.65-.74 2.08 2.08 0 00.35-.88l.73.18a2.89 2.89 0 01-.48 1 2.72 2.72 0 01-2.27 1 2.79 2.79 0 01-2.06-.77 4.21 4.21 0 01.05-5.41 2.75 2.75 0 012-.75 2.69 2.69 0 012 .71 2.61 2.61 0 01.69 1.11zm6.25 3.7a3.16 3.16 0 00.78-2.26 3.12 3.12 0 00-.77-2.25 2.16 2.16 0 00-1.54-.61c-1.41 0-2.33 1.13-2.33 2.86s.93 2.86 2.34 2.86a2.11 2.11 0 001.52-.6m1.5-2.26c0 2.13-1.18 3.48-3 3.48s-3-1.35-3-3.48 1.19-3.47 3-3.47 3 1.36 3 3.47m2.1 3.35h-1a6.59 6.59 0 00.07-1.05v-4.63a6 6 0 00-.07-1h.83a5.08 5.08 0 00-.07 1v5h2.81a6.2 6.2 0 001-.07v.75a6.51 6.51 0 00-1-.06zm5.3 0h-1a6.59 6.59 0 00.07-1.05v-4.63a6 6 0 00-.07-1h.82a5.91 5.91 0 00-.07 1v5h2.77a6.33 6.33 0 001-.07v.75a6.75 6.75 0 00-1-.06zm8.86.06a6.2 6.2 0 00-1-.06h-3.56a5.48 5.48 0 00.07-1.05v-4.66a5.79 5.79 0 00-.07-1h3.51a9.25 9.25 0 001-.05v.73a6.39 6.39 0 00-1-.07h-2.72v2.26h2.32a7.63 7.63 0 001-.06v.74a5.44 5.44 0 00-1-.06h-2.32v2.58h2.8a5.73 5.73 0 001-.06zm5.31-2.81a4.33 4.33 0 00-.9.05V186a4.72 4.72 0 001 .06h.25a7.82 7.82 0 00.93 0 6.4 6.4 0 00-.06 1v.8a5.93 5.93 0 00.06 1 4.66 4.66 0 01-1.19.55 5.33 5.33 0 01-1.31.17 3 3 0 01-2-.66 3.69 3.69 0 01-1.08-2.8c0-2.12 1.19-3.47 3.07-3.47a2.69 2.69 0 011.88.65 2.44 2.44 0 01.64 1l-.68.23a1.77 1.77 0 00-1.85-1.27c-1.45 0-2.34 1.08-2.34 2.85a3.22 3.22 0 00.74 2.23 2.12 2.12 0 001.64.64 3.09 3.09 0 001.77-.5v-1.76zm7 2.81a6.2 6.2 0 00-1-.06h-3.58a5.4 5.4 0 00.08-1.05v-4.66a5.81 5.81 0 00-.08-1h3.51a9.25 9.25 0 001-.05v.73a6.49 6.49 0 00-1-.07h-2.71v2.26h2.31a7.63 7.63 0 001-.06v.74a5.44 5.44 0 00-1-.06h-2.31v2.58H101a5.78 5.78 0 001-.06zm8.4-1.15a3.2 3.2 0 00.78-2.26 3.12 3.12 0 00-.78-2.25 2.16 2.16 0 00-1.54-.61c-1.41 0-2.33 1.13-2.33 2.86s.94 2.86 2.34 2.86a2.13 2.13 0 001.53-.6m1.5-2.26c0 2.13-1.19 3.48-3 3.48s-3-1.35-3-3.48 1.19-3.47 3-3.47 3 1.36 3 3.47m1.9 2.32a5 5 0 00.07 1H113a5.79 5.79 0 00.07-1v-4.68a6.58 6.58 0 00-.07-1h3.33a7.41 7.41 0 001-.06v.75a5.55 5.55 0 00-1-.06h-2.53v2.26h2.06a7.49 7.49 0 001-.05v.73a6.67 6.67 0 00-1-.06h-2.06zm12.2-3.76a2 2 0 00-.42-.77 1.89 1.89 0 00-1.52-.64c-1.42 0-2.32 1.1-2.32 2.85s.91 2.85 2.32 2.85a2 2 0 001.65-.74 2.08 2.08 0 00.35-.88l.73.18a2.89 2.89 0 01-.47 1 2.75 2.75 0 01-2.28 1 2.79 2.79 0 01-2.06-.77 4.24 4.24 0 01.05-5.41 2.76 2.76 0 012-.75 2.57 2.57 0 012.65 1.82zm3.4 4.79a5.83 5.83 0 00.07-1v-1.81l-2-3.11a7.21 7.21 0 00-.53-.77h1a3.62 3.62 0 00.43.81l1.52 2.44 1.53-2.44a4.21 4.21 0 00.42-.81h1a6.63 6.63 0 00-.53.77l-2 3.12v1.81a5.67 5.67 0 00.07 1zm8.34-4.79a2 2 0 00-.41-.77 1.9 1.9 0 00-1.52-.64c-1.43 0-2.32 1.1-2.32 2.85s.91 2.85 2.32 2.85a1.87 1.87 0 002-1.62l.72.18a2.59 2.59 0 01-2.75 2.06 2.82 2.82 0 01-2.06-.77 4.22 4.22 0 01.06-5.41 2.75 2.75 0 012-.75 2.6 2.6 0 012.66 1.82zm2.86 4.79h-.95a6.68 6.68 0 00.06-1.05v-4.63a6.12 6.12 0 00-.06-1h.82a5.91 5.91 0 00-.07 1v5h2.77a6.12 6.12 0 001-.07v.75a6.51 6.51 0 00-1-.06zm8.87.06a6.2 6.2 0 00-1-.06h-3.58a5.48 5.48 0 00.07-1.05v-4.66a5.79 5.79 0 00-.07-1h3.51a9.4 9.4 0 001-.05v.73a6.49 6.49 0 00-1-.07h-2.71v2.26H148a7.63 7.63 0 001-.06v.74a5.44 5.44 0 00-1-.06h-2.31v2.58h2.78a5.78 5.78 0 001-.06zm6.53-.68a2.15 2.15 0 001.65-.62 3 3 0 00.74-2.15 2.81 2.81 0 00-.7-2.08 2.14 2.14 0 00-1.65-.61h-1.72v5.46zm-2.36-5.09a6.86 6.86 0 00-.07-1H156c1.95 0 3.07 1.2 3.07 3.3a3.57 3.57 0 01-.94 2.61 2.94 2.94 0 01-2.13.78h-2.5a6.59 6.59 0 00.07-1.05zm11.09 5.77a6.26 6.26 0 00-1-.06h-3.58a6.53 6.53 0 00.06-1.05v-4.66a6.93 6.93 0 00-.06-1h3.51a9.11 9.11 0 001-.05v.73a6.39 6.39 0 00-1-.07H161v2.26h2.32a7.47 7.47 0 001-.06v.74a5.38 5.38 0 00-1-.06H161v2.58h2.79a5.93 5.93 0 001-.06zm4.99-5.02a1.7 1.7 0 00-.31-.73 1.68 1.68 0 00-1.31-.51c-.9 0-1.53.49-1.53 1.2a1 1 0 00.76 1 7.77 7.77 0 001.26.31c1.41.3 2 .84 2 1.86 0 1.24-.85 1.94-2.37 1.94a2.51 2.51 0 01-2.12-.83 2.19 2.19 0 01-.41-1.16l.76-.1a1.37 1.37 0 00.28.87 1.76 1.76 0 001.47.61c1 0 1.68-.49 1.68-1.31a1 1 0 00-.51-.94 4.25 4.25 0 00-1.46-.44 3.81 3.81 0 01-1.19-.4 1.5 1.5 0 01-.82-1.39c0-1.11.89-1.82 2.25-1.82a2.32 2.32 0 011.95.81 2 2 0 01.38.93zm2.85-1.73a7.08 7.08 0 00-.07 1v4.71a7.08 7.08 0 00.07 1h-.83a5.52 5.52 0 00.07-1v-4.71a5.6 5.6 0 00-.07-1zm5.49 3.94a4.23 4.23 0 00-.9.05V186a4.67 4.67 0 001 .06h.26a8.23 8.23 0 00.94 0 5.35 5.35 0 00-.07 1v.8a5 5 0 00.07 1 4.86 4.86 0 01-1.2.55 5.33 5.33 0 01-1.31.17 3 3 0 01-2-.66 3.69 3.69 0 01-1.08-2.8c0-2.12 1.2-3.47 3.07-3.47a2.67 2.67 0 011.88.65 2.56 2.56 0 01.65 1l-.69.23a1.77 1.77 0 00-1.85-1.27c-1.45 0-2.34 1.08-2.34 2.85a3.22 3.22 0 00.74 2.23 2.12 2.12 0 001.64.64 3.09 3.09 0 001.77-.5v-1.76zm3.45-3.94a3.77 3.77 0 00.44.79l2.78 4.16c.1.16.36.59.57 1 0-.7-.05-1.09-.05-1.16v-3.73a5.09 5.09 0 00-.07-1h.82a5.89 5.89 0 00-.07 1v4.68a5.24 5.24 0 00.07 1h-1a5.15 5.15 0 00-.46-.79l-2.82-4.25c-.07-.1-.36-.6-.49-.84 0 .42.06.84.06 1.08v3.75a5.07 5.07 0 00.07 1h-.82a5.88 5.88 0 00.07-1v-4.65a5.9 5.9 0 00-.07-1zm-152.43-36.2q2.66-4.1 6.77-4.09 5.51 0 8 5.49a16 16 0 011.51 6.17h-4.55a12.31 12.31 0 00-1.13-3.61 4 4 0 00-3.68-2.16q-2.46 0-3.89 3a21 21 0 00-1.39 8.68q0 5.58 1.5 8.36c1 1.86 2.26 2.78 3.8 2.78a3.9 3.9 0 003.61-2.38 13.49 13.49 0 001.14-3.86h4.59a18.41 18.41 0 01-3 8.81 7.38 7.38 0 01-6.23 3.39q-4.71 0-7.4-4.59T26 159.89q0-8.67 3.06-13.37m47.33-3.48h5.23l-7.38 20.7v12.43h-4.6v-12.41L62 143.04h5.43l4.58 14.43 4.38-14.43zm24.61 3.48c1.78-2.73 4-4.09 6.77-4.09q5.51 0 8 5.49a16.14 16.14 0 011.5 6.17h-4.59a12 12 0 00-1.13-3.61 4 4 0 00-3.65-2.16q-2.46 0-3.89 3a21.2 21.2 0 00-1.41 8.64q0 5.58 1.49 8.36c1 1.86 2.27 2.78 3.8 2.78a3.89 3.89 0 003.61-2.38 13.49 13.49 0 001.14-3.86h4.6a18.41 18.41 0 01-3 8.81 7.38 7.38 0 01-6.24 3.43q-4.71 0-7.4-4.59t-2.69-12.62q0-8.67 3.06-13.37m34.74-3.48h4.58v27.17h10.99v5.96h-15.57v-33.13zm49.73 5.89h-11.68v7.03h10.72v5.74h-10.72v8.51h12.21v5.96h-16.74v-33.09h16.21v5.85zm-70.64-25.72a7.56 7.56 0 01-1.45-2.79c-.48-2 2.48-17.81 3.16-18.75a5.38 5.38 0 001.17-3.75c0-.54 1.88-9.54 2.18-11.78 1.42-10.53 1.06-15.19-2.18-21-.07-.13-.15-.27-.21-.4a31.85 31.85 0 017.55 5 10.62 10.62 0 002.2 5.24 10.25 10.25 0 003.85 2.02 31.7 31.7 0 01-4.73 38.8 31.9 31.9 0 01-11.54 7.37m-10.89 1.92a31.61 31.61 0 01-10.74-1.87c.76-.82 1.13-3.68.5-5.64s5.13-7.77 6.29-10.8.09-8.56 2.44-11c3-3.16 7.16-20.59 8.6-16.15.3.92-3.08 9.84-3.08 9.84-.4 7.67 4.84 5.15-1.8 13.61-2.19 2.79.7 11.89 1.21 14.13a5.65 5.65 0 01-2.1 5.54 2.48 2.48 0 00-1.09 2.36h-.23m-22.42-9.29a31.72 31.72 0 01-.06-44.78 5.94 5.94 0 001.45.73c1.49.51 3.68-3 5.54-3.92.74-.38.45-1.19-.1-2.07a31.55 31.55 0 0115.21-4.09c0 1.76-.08 3-.32 3.23-.72.73-7.91 8.61-7.91 14.38 0 6.79-5.17 10.84-5.74 23.68a67.48 67.48 0 01-2.06 12.77c-.23.72-.69 2.14-1.43 3.86a31.48 31.48 0 01-4.58-3.79m5.13-52.55c-1.4-3.23 4.2-4.72 8.94-9.47 2.32-2.32.72-7.25 4.51-8.47 1.79-.58 3.06 8 3.39 14A33.81 33.81 0 0087 63.9a4.17 4.17 0 01-.36-.61m31.51-12.36c.18-.44.91-2.21 1.32-1.8.24.24-1.18 3.06-1.27 6.26a12.19 12.19 0 002.45 8.38 34.72 34.72 0 00-4.08-2c-.8-4.81 1.21-10 1.58-10.89m19.81 42.49a33.89 33.89 0 00-5.05-17.85c.61-2-.8-3.52-.49-5.41.38-2.26-3.72-1.35-4.45-2.58-1.16-2-.52-3.66-2.28-7.06-2-3.82 0-1.18-2.09-13.36-1.24-7.37-3.18-6.78-5.65-8.16-2.89-1.61-4.64-2.19-5.28-3.64a1.46 1.46 0 01.84-1.81 4.51 4.51 0 002.09-3.45c-.15-.47-1.66-.36-1.59-.89s1.55-.21 1.67-.33-.11-1.19-.34-1.58c-.58-.95-4.55.28-3.06-1.8s4 1.95 4.68 1.65a3.65 3.65 0 00-2.38-4.33c-5.33-1.89-8.22 3.88-6.5 9.73.66 2.29-1.94 2-2.32 2s-3.67-1.37-5.7-1.1-2.51.18-5.5 3.16-2.3 8.08-2.3 8.08c-5.22 3.19-5 6.85-7 10.27a70.47 70.47 0 00-4.67 9.56 7.2 7.2 0 00-.59 4.74 34 34 0 005.06 52.54 29.12 29.12 0 01-2.88 4.64c-3.18 4.11-5.59 4.7-3.93 5.32.61.23 10 1.76 10.14-1.19a7.84 7.84 0 012.68-5.58 34 34 0 0012.83 2.5h1.55a6.55 6.55 0 00.54.48c3 2.44 2.77-.87 8.85 3.16 2.19 1.45 6 1.19 7.2.4s-2.61-3.36-5.61-6.38a34 34 0 0021.5-31.65"/></g></svg>