<svg xmlns="http://www.w3.org/2000/svg" viewBox="0 0 212 212"><g data-name="レイヤー 2"><path fill="#f6f6f6" d="M0 0h212v212H0z"/><path d="M55.35 45.48h4.58v-7.87h3.92v1.32h-1.3V56h1.3v1.3h-3.92v-7.89h-4.58v7.86h-3.93V56h1.31V39h-1.31v-1.39h3.93v7.87m0 1.3v1.31h4.58v-1.31h-4.58m32.38-9.17h5.24v1.32h-1.31v6.54h1.31v1.31h-1.31v1.31h1.31v1.32h-1.31v6.54h1.31v1.31h-5.24v-1.31h1.31v-6.54h-1.31v-1.32h1.31v-1.31h-1.31v-1.31h1.31v-6.54h-1.31v-1.32zM76.61 66.83h5.24v1.32h-1.31v6.54h1.31V76h-1.31v1.31h1.31v1.32h-1.31v6.54h1.31v1.31h-5.24v-1.31h1.31v-6.54h-1.31v-1.32h1.31V76h-1.31v-1.31h1.31v-6.54h-1.31v-1.32zm44.03-20.05v1.31h2.62a3.93 3.93 0 013.93 3.91v4h1.3v1.31h-3.92v-6.59a1.32 1.32 0 00-1.31-1.32h-2.62v7.86h-3.93V56H118V39h-1.32v-1.39h3.93v7.86"/><path d="M120.64 46.77h2.62a3.92 3.92 0 003.93-3.92v-3.93h1.3v-1.31h-3.92v6.55a1.31 1.31 0 01-1.31 1.31h-2.62m34.83 41.01a3.92 3.92 0 01-3.92-3.93V70.76a3.92 3.92 0 013.92-3.93h1.31a3.93 3.93 0 013.93 3.93v11.79a3.93 3.93 0 01-3.93 3.93zm2.62-11.79v-5.24a1.31 1.31 0 00-1.31-1.31h-1.31a1.31 1.31 0 00-1.3 1.31v5.24h3.92zm-1.3 10.47a1.3 1.3 0 001.3-1.31v-5.24h-3.92v5.24a1.29 1.29 0 001.29 1.31h1.33zm1.3-7.85V76h-3.92v1.32zm-2.62-27.9a3.92 3.92 0 01-3.93-3.92v-4a3.93 3.93 0 013.93-3.93h1.3a3.93 3.93 0 013.94 3.93v4a3.92 3.92 0 01-3.94 3.92zm2.62-9.17a1.33 1.33 0 00-1.32-1.32h-1.3a1.32 1.32 0 00-1.31 1.32v6.54a1.31 1.31 0 001.31 1.31h1.31a1.31 1.31 0 001.31-1.31zm-6.55 13.09h9.17v1.31h-9.17zm0 2.62h9.17v1.3h-9.17zm-53.68 81.12a3.92 3.92 0 01-3.93-3.92v-4a3.93 3.93 0 013.93-3.93h1.31a3.93 3.93 0 013.93 3.93v4a3.92 3.92 0 01-3.93 3.92zm2.62-9.17a1.31 1.31 0 00-1.31-1.31h-1.31a1.31 1.31 0 00-1.31 1.31v6.54a1.31 1.31 0 001.31 1.31h1.31a1.31 1.31 0 001.31-1.31zm-6.55 13.09h9.17v1.31h-9.17zm0 2.62h9.17v1.3h-9.17zm-21.21-35.76a3.92 3.92 0 01-3.93-3.92v-4A3.93 3.93 0 0172.72 96H74a3.93 3.93 0 014 4v4a3.92 3.92 0 01-4 3.85zm2.62-9.17A1.31 1.31 0 0074 97.37h-1.28a1.31 1.31 0 00-1.31 1.31v6.54a1.31 1.31 0 001.31 1.31H74a1.31 1.31 0 001.31-1.31zm-6.55 13.09h9.17v1.31h-9.17zm0 2.62h9.17v1.3h-9.17zm-9.62-46.55a3.91 3.91 0 012.61-1H67v1.32h-1.29v17H67v1.31h-3.91v-7.85h-2.61v5.24h-2.63v-5.24h-2.62v7.86H51.3v-1.31h1.31v-17H51.3v-1.34h5.25a3.89 3.89 0 012.62 1m1.31 9.47h2.61V76h-2.61zM57.85 76h-2.62v1.31h2.62zm2.63-6.54v5.23h2.61v-6.55h-1.31a1.31 1.31 0 00-1.3 1.32m-2.63 0a1.32 1.32 0 00-1.31-1.32h-1.31v6.55h2.62v-5.23m83.19 17.02V68.14h1.29v-1.3h-3.91v12.29l-4.58-12.29h-3.81v1.3h1.32v17.03h-1.32v1.31h3.94V74.15l4.58 12.33h2.49zm-79.26 14.8V100a3.93 3.93 0 00-3.93-3.93h-1.31a3.93 3.93 0 00-3.93 3.93v11.79a3.93 3.93 0 003.93 3.93h1.31a3.93 3.93 0 003.93-3.93v-2.62h-2.62v3.92a1.3 1.3 0 01-1.31 1.31h-1.31a1.31 1.31 0 01-1.31-1.31V98.67a1.31 1.31 0 011.31-1.31h1.31a1.31 1.31 0 011.31 1.31v2.61h2.62"/><path d="M51.3 106.53h5.24v1.31H51.3zm0-2.62h5.24v1.31H51.3zm37.1 10.48h3.93v-7.86h3.93v1.31h-1.31v7.86H84.47v-1.31h1.31V97.36h-1.31v-1.31h5.23v1.31h-1.3v17.03zm16.8 0h3.93v-7.86h3.93v1.31h-1.31v7.86h-10.48v-1.31h1.31V97.36h-1.31v-1.31h5.24v1.31h-1.31v17.03zM92.94 78.62a3.94 3.94 0 013.94-3.93h2.61v-6.55h-3.93v3.93h-2.62v-5.24h9.17v7.86a3.93 3.93 0 01-3.93 3.93h-2.62v6.55h3.93v-5.24h2.62v6.55h-9.17zm5-1.31a1.3 1.3 0 001.3-1.31h-2.61a1.31 1.31 0 00-1.31 1.31zm13.66 5.24h9.17v1.31h-9.17zm0 2.62h9.17v1.31h-9.17zm9.17-18.34v7.86a3.94 3.94 0 01-3.93 3.94h-1.31a3.93 3.93 0 01-3.93-3.93v-7.87h2.62V76a1.31 1.31 0 001.31 1.31h1.31a1.31 1.31 0 001.31-1.31v-9.17zM115 144.92h-5.24v-1.31H111v-17h-1.31v-1.31h10.51v5.24h-2.62v-3.93h-3.93v6.55h5.24v3.93h-5.24v6.55H115zm-1.31-10.48v1.31h2.62v-1.31h-2.62m25.93-37.18a1.31 1.31 0 00-1.3 1.31v5.24h6.54v7.86a3.93 3.93 0 01-3.93 3.93h-1.32a3.92 3.92 0 01-3.92-3.93V99.88a3.92 3.92 0 013.93-3.88h1.32a3.93 3.93 0 013.93 3.93v1.31h-2.62v-2.67a1.31 1.31 0 00-1.31-1.31zm1.06 17.28a1.3 1.3 0 001.31-1.31V108h-3.93v5.23a1.3 1.3 0 001.3 1.31h1.32zm1.31-7.85v-1.31h-3.92v1.31zm-16.42 7.7v-3.93h2.61v5.24H117.7v-1.31h1.3v-17h-1.3v-1.3h10.48v5.23h-2.61v-3.96h-3.93v6.55h5.24v3.93h-5.24v6.55zm-3.93-9.17v1.31h2.61v-1.31h-2.61m36.45 9.17v-3.93h2.62v5.24h-10.48v-1.31h1.31v-17h-1.31v-1.3h10.48v5.23h-2.62v-3.96h-3.93v6.55h5.24v3.93h-5.24v6.55zm-3.93-9.17v1.31h2.62v-1.31h-2.62M51.3 32.3h109.41v.68H51.3zm0 29.28h109.41v.68H51.3zm0 29.22h109.41v.68H51.3zm0 29.22h109.41v.68H51.3zm0 29.22h109.41v.68H51.3zm0 29.29h109.41v.68H51.3zM51.3 26h4.02v4.02H51.3zm8.78 0h4.02v4.02h-4.02zm8.78 0h4.02v4.02h-4.02zm8.79 0h4.02v4.02h-4.02zm8.78 0h4.02v4.02h-4.02zm8.78 0h4.02v4.02h-4.02zm8.79 0h4.02v4.02H104zm8.78 0h4.02v4.02h-4.02zm8.78 0h4.02v4.02h-4.02zm8.78 0h4.02v4.02h-4.02zm8.79 0h4.02v4.02h-4.02zm8.78 0h4.02v4.02h-4.02zm8.78 0h4.02v4.02h-4.02zM51.3 181.98h4.02V186H51.3zm8.78 0h4.02V186h-4.02zm8.78 0h4.02V186h-4.02zm8.79 0h4.02V186h-4.02zm8.78 0h4.02V186h-4.02zm8.78 0h4.02V186h-4.02zm8.79 0h4.02V186H104zm8.78 0h4.02V186h-4.02zm8.78 0h4.02V186h-4.02zm8.78 0h4.02V186h-4.02zm8.79 0h4.02V186h-4.02zm8.78 0h4.02V186h-4.02zm8.78 0h4.02V186h-4.02zm-80.14-49.39a2.43 2.43 0 00.46-.73c.09-.32-.19-.6-.21-.93 0-.52.48-.88.94-1 .46.15 1 .12 1.34.52s.41.74.09 1-.78.49-.85.94a.86.86 0 00.4.91.52.52 0 00.41 0 2.33 2.33 0 00.72-.48 1.12 1.12 0 01.44-.34c.13-.05.28-.18.42-.06a1.12 1.12 0 01.29 1 2.36 2.36 0 01-.42 1.07.9.9 0 01-.15.19.73.73 0 00-.12.56.8.8 0 00.37.6 1 1 0 001.26-.38c.08-.12 0-.27.15-.39a5.85 5.85 0 00.38-.49s0 .06 0 0 0 .06 0 0a1.84 1.84 0 00.34-.8 2 2 0 00-.09-.87c0-.08-.07-.16-.09-.23a4 4 0 00-.6-1.6c-.17-.21-.38-.37-.57-.57a9.16 9.16 0 00-1-1 1.05 1.05 0 00-.26-.13c-.33-.18-.56-.48-.93-.56a2.78 2.78 0 00-.51 0c-.22 0-.52-.28-.39-.48a.89.89 0 01.74-.39.38.38 0 01.13 0 1.21 1.21 0 00.18 0c.19 0 .35.08.53.11a3.09 3.09 0 01.52.07 6.23 6.23 0 01.91.51 4 4 0 011.21.94 7.33 7.33 0 011.17 1.75c.17.36.26.72.4 1.11s0 .6.18.89c0 .06.06.15.12.13s.27-.23.45-.29a.59.59 0 01.72.42.73.73 0 010 .44 3.08 3.08 0 01-.66 1.14 4.12 4.12 0 01-.69.49 2.06 2.06 0 00-.57.49.74.74 0 00.24 1s.08.09.15.07.13 0 .18 0 .08 0 .09.05c.18.32.5.57.52.95a1.84 1.84 0 01-.06.62.75.75 0 01-.15.31c-.26.21-.46.5-.79.58a.78.78 0 01-.76-.17 8.67 8.67 0 01-.93-1.42 1.15 1.15 0 00-.42-.4 2.65 2.65 0 00-.3-.06s0-.09-.1-.08a.87.87 0 00-.57.22v.07c0 .02 0 .07-.06.11a7 7 0 00-.07.79c-.07.57.23 1.17-.14 1.63a1.54 1.54 0 01-.64.41.35.35 0 01-.2 0 3.2 3.2 0 01-1.12-.3l-.14-.12a1.36 1.36 0 01-.62-.68.85.85 0 01.12-.73 5.5 5.5 0 01.72-.89 7.38 7.38 0 00.59-.5.45.45 0 00.12-.31.53.53 0 00-.58-.53 1.52 1.52 0 00-.51.16.84.84 0 00-.28.18.61.61 0 01-.48.19.48.48 0 01-.33-.06c-.3-.22-.6-.61-.4-1s.35-.43.5-.68a1.39 1.39 0 00.11-1c0-.17-.26-.2-.41-.2a1.94 1.94 0 00-.6.17c-.15 0-.17.19-.28.27s-.44.27-.54.54c0 .06-.13.08-.15.15a4.05 4.05 0 00-.41 1.23 1.2 1.2 0 010 .38 2.23 2.23 0 00.07 1.51 7.85 7.85 0 001.21 1.95c.14.15.3.32.52.29a4.5 4.5 0 001.33.67 1.41 1.41 0 01.62.41.49.49 0 010 .41.54.54 0 01-.56.25c-.29 0-.53-.2-.84-.19-.12 0-.24-.09-.35-.16a12.39 12.39 0 00-1.17-.76 4.19 4.19 0 01-1-.95c-.07-.08-.2-.1-.26-.19a7.43 7.43 0 01-1-1.73 1.09 1.09 0 010-.3 5.47 5.47 0 00.07-1.51.33.33 0 00-.32-.31 1.19 1.19 0 00-.51.17.41.41 0 01-.36 0 .79.79 0 01-.35-.94c.15-.38.65-.55 1-.83a5.88 5.88 0 011.17-.6 1 1 0 00.48-.45.84.84 0 000-.42.34.34 0 00-.29-.25c-.38-.05-.83-.09-1-.47s0-.46.07-.71a.62.62 0 01.27-.38c.32-.26.72-.61 1.15-.36 0 0 0 .07.07.08a1.24 1.24 0 01.64 1 .6.6 0 00.72.43.29.29 0 00.2-.19m82.87-1.66a7.62 7.62 0 00-2.08 0 3.86 3.86 0 00-.66.2c-.58.16-1.17 0-1.75.19a.92.92 0 01-.26.07 17.66 17.66 0 01-2.72 0 .56.56 0 01-.39-.17 1.34 1.34 0 01-.18-.52c-.32-.55.33-1.06.84-1.13a9 9 0 011.34-.2 41.94 41.94 0 015.13.12v.06a7.22 7.22 0 00.93 0 .74.74 0 00.61-.43 2.48 2.48 0 00.1-.73c-.06 0-.12 0-.16-.07a2 2 0 00-1-.35 16.68 16.68 0 00-2.45 0l-.88.12c-.69.09-1.37 0-2.07.11h-1.3a8.56 8.56 0 00-1.59.15.74.74 0 00-.5.57c-.09.32-.07.65-.16 1a3.89 3.89 0 000 1.63c.06.36.15.75.51.9a.71.71 0 00.25.11 11.37 11.37 0 001.53.08c.38 0 .87-.2 1.26-.27a2.54 2.54 0 01.95 0c1 .19 1.79-.21 2.78 0a4.24 4.24 0 001.12.09c.14 0 .32 0 .35.18a2.61 2.61 0 010 1.36c0 .11-.21.14-.3.15a11.63 11.63 0 01-2.94-.13c-.55-.11-1.1-.11-1.65-.18s-1.36-.14-2.05-.19a3.18 3.18 0 00-1 0 .62.62 0 00-.33.11 1.62 1.62 0 00-.44 1.22c0 .34-.13.65-.14 1a4.06 4.06 0 00.2 1.07.9.9 0 00.41.56c.92.46 1.93.09 3 .17.84.06 1.65 0 2.48 0a23 23 0 012.35.12.4.4 0 01.23.2 1.49 1.49 0 01.06.91.44.44 0 01-.37.33 1.21 1.21 0 00-.19 0 1.36 1.36 0 01-.37.1h-2.53c-.56 0-1.11-.08-1.68-.13a22.46 22.46 0 00-2.72-.07.74.74 0 00-.64.42 1.49 1.49 0 00-.1.73c0 .55-.2 1.27.33 1.56a.72.72 0 00.65-.08c.46-.27.22-.84.36-1.28.57-.05 1.27-.28 1.76.14a2.07 2.07 0 00.06 1 .49.49 0 00.53.3.82.82 0 00.54-.3 2.49 2.49 0 00.28-1.13c0-.13.2 0 .32-.07.31-.09.62.1.93 0 .17.25 0 .56.13.82s.11.33.25.41.28.2.44.15a.78.78 0 00.46-.71c.07-.55.53-1 1.08-.78a.71.71 0 01.36.27c.12.2 0 .44.11.64a.65.65 0 00.39.39.75.75 0 00.55 0 .74.74 0 00.35-.55c.06-.36.12-.71.16-1.05a11 11 0 000-2.69c0-.09-.12-.17-.19-.25s-.16-.35-.31-.49a.73.73 0 00-.79-.09c-.16.07-.33-.09-.51-.1a7.23 7.23 0 00-.93 0 37.57 37.57 0 01-5-.15c-.42 0-1-.05-1.13-.58a.21.21 0 010-.19c.18-.26.15-.58.41-.77s.71-.06 1.08-.1l.31-.05a3.19 3.19 0 011.19.06l.23.05h.57c.74.14 1.42.08 2.16.26h.53a8.83 8.83 0 001 .11v.09c.44 0 1 0 1.25-.37a2.7 2.7 0 00.4-1.66 15.07 15.07 0 00-.21-1.87c-.06-.28-.29-.38-.49-.54s-.24 0-.36 0m-95.3 9.55c.05.2 0 .43 0 .63a3.89 3.89 0 01-.12 1.73.63.63 0 01-.39.44c-.43.13-.53-.42-.51-.75a20.45 20.45 0 000-3.32c-.07-.71 0-1.4-.14-2.12a.46.46 0 00-.13-.28.42.42 0 00-.53 0c-.19.16-.18.43-.26.66a2.83 2.83 0 00-.09.92c0 .89-.12 1.77 0 2.67a13.91 13.91 0 010 2.14.54.54 0 01-.27.47.22.22 0 01-.16 0 .65.65 0 01-.39-.5 1.86 1.86 0 010-.47c.09-.81 0-1.6 0-2.41v-.62a16 16 0 00-.06-2.68.28.28 0 00-.25-.29c-.49 0-.49.6-.56 1 0 .18-.08.33-.11.51a17.39 17.39 0 000 2c-.11 1.08.23 2.17-.07 3.24a.73.73 0 01-.19.31s-.09.14-.17.09a1.14 1.14 0 01-.44-.74c-.06-.16.05-.32.06-.48.09-1.06 0-2.13 0-3.19v-.19c0-.4 0-.81-.06-1.21 0-.12-.08-.24-.1-.35a2.51 2.51 0 00-.19-.87.25.25 0 00-.32-.12.92.92 0 00-.44.49 5.05 5.05 0 00-.06.68c0 .18-.2.3-.23.48a3.89 3.89 0 00.07 1c.07.64-.21 1.31 0 2 .08.21 0 .46-.07.71-.08.52 0 1-.1 1.55 0 .15-.16.32-.33.28s-.29-.19-.48-.2 0-.06 0-.07a8.54 8.54 0 010-1.43v-.06a4.56 4.56 0 01.08-1 13.87 13.87 0 00.11-2.4v-.14c-.05-.3 0-.59 0-.89a.73.73 0 00-.67-.65.94.94 0 00-.7.41 1.55 1.55 0 00-.18.55v.4c-.08.31-.06.61-.11.92a1.77 1.77 0 00-.06.3c-.05 1.21-.09 2.41-.09 3.62 0 0 0 .09-.07.1s-.25.14-.37.24a.1.1 0 01-.12 0 1 1 0 01-.34-.6s0-.13-.07-.11.06-.25.06-.37c0-.93.07-1.86.13-2.8 0-.18.05-.37.05-.56a3 3 0 00-.2-1.81s0-.1-.09-.06c-.17-.28-.59-.17-.78 0s-.26.57-.35.89c-.15.58-.23 1.13-.36 1.72s0 1.08-.08 1.63a2.13 2.13 0 01-.08.27 5.42 5.42 0 00.06 1.14.17.17 0 01-.11.12c-.15.08-.27.32-.42.22s-.19-.44-.37-.63 0-.13 0-.18a3.43 3.43 0 01-.22-1.3c.07-.45 0-.84 0-1.27.06-.8 0-1.29.08-1.78s0-.95 0-1.44a1.14 1.14 0 01.14-.3c.1-.19.09-.44.24-.62s.25 0 .36-.11.1-.14.19-.15h1.72a5.62 5.62 0 001.61-.15h.18a.52.52 0 00.27-.65.86.86 0 00-.3-.39.91.91 0 00-.44-.19 2.23 2.23 0 01-1-.36 5.82 5.82 0 01-1.29-1.13c-.08-.1-.28-.18-.31-.32-.09-.39 0-.78-.07-1.18a1.72 1.72 0 01-.08-.59c0-.05.09-.08.11-.13.09-.25.18-.5.29-.73s.32-.46.47-.71a4.05 4.05 0 01.21-.35 2.08 2.08 0 01.37-.41c.27-.19.51-.35.79-.51a.54.54 0 01.41-.09c.18.06.36.05.53.1s.33.27.52.41a1.73 1.73 0 01.21.17 2.85 2.85 0 001.47.73s.08.05.13.06a.56.56 0 00.43 0 3.9 3.9 0 00.4-.31c.12-.05 0 .12 0 0a2.66 2.66 0 01.47-.63 1 1 0 01.58-.29 2.73 2.73 0 011.44.26 1.61 1.61 0 01.54.44 6.94 6.94 0 01.7.86 3.26 3.26 0 01.4 1.21 3.55 3.55 0 01-.68 2 2.41 2.41 0 01-.33.44 2.34 2.34 0 01-.66.45c-.27.13-.48.38-.76.49s-.68.2-1 .33a1.08 1.08 0 00-.55.44c-.14.24.12.5.34.53s.67.1 1 .11c.64 0 1.26-.13 1.91-.17a3 3 0 00.71-.1h.16c.24.09.35.32.49.53s0 .43 0 .65c0 .85.17 1.64.1 2.47 0 .29-.07.57-.12.85a2.54 2.54 0 000 .87m-9.45-10.71c-.19.24-.41.42-.43.73a4 4 0 00.11 1.19c0 .15.21.22.23.32s.17.14.24.24.13.23.22.34a2.45 2.45 0 00.86.52 6.74 6.74 0 001.86.52 1.84 1.84 0 00.74 0c.12 0 .28.07.41 0 .39-.09.71-.06 1.11-.13a2.91 2.91 0 001.19-.74 2.28 2.28 0 00.42-.4 2.62 2.62 0 00.51-2.45 1.26 1.26 0 00-.22-.45c-.14-.19-.18-.43-.38-.57a1.1 1.1 0 00-.4-.18.71.71 0 00-.6.07c-.23.19-.23.23-.32.3s-.22.16-.23.24a14 14 0 01-.15 1.45c0 .18 0 .3-.08.46a1 1 0 01-.45.42 2.08 2.08 0 01-1.39.09c-.32-.1-.72-.08-1-.31a1.31 1.31 0 01-.35-.46 2 2 0 010-.76c0-.23.17-.46.09-.65s-.2-.44-.45-.46a3.34 3.34 0 00-.89.06c-.24 0-.52.15-.56.38a.47.47 0 01-.06.13zm80.53 9.88a3.68 3.68 0 001 1.13.91.91 0 00.46.23 3.52 3.52 0 00.64.09h.55a3.27 3.27 0 001-.1c.19-.09.73-.45.92-.58s-.16.17-.11.08a1.46 1.46 0 01.26-.33 2.88 2.88 0 00.55-.79c.06-.15.19-.27.22-.44a3 3 0 01.11-.32 4.83 4.83 0 000-2.14 2.82 2.82 0 00-.21-.64c0-.11-.13-.24-.18-.35a17.88 17.88 0 01-.81-2 8.32 8.32 0 01-.31-1.38 1.67 1.67 0 01.09-1.08 6.61 6.61 0 00.39-.94 3.5 3.5 0 01.24-.42 1.49 1.49 0 00.19-1.3.42.42 0 00-.66 0 1.18 1.18 0 00-.33.49c-.12.3-.08.62-.17.93s-.14.49-.23.73a.5.5 0 01-.23.28.57.57 0 01-.72-.48 3.08 3.08 0 00-.65-1.86.4.4 0 00-.53 0 .65.65 0 00-.25.67c.06.19.11.38.17.56a7.3 7.3 0 01.52 1.36 3.74 3.74 0 01-.56 2.79 7 7 0 01-1.47 1.11s0 .15-.06.14c-.19-.07-.36.13-.55.12a12.71 12.71 0 01-1.38 0 3.48 3.48 0 01-1.16-.48c-.36-.22-.54-.58-.9-.82-.07 0-.08-.14-.1-.19a1.84 1.84 0 00-.27-.74c-.05-.06.05-.14.05-.22v.17a2.71 2.71 0 010-.29 6.92 6.92 0 01.19-1.5c.24-.2.39-.47.65-.67s.28-.27.47-.31.38-.1.58-.13a2.13 2.13 0 011.07.12 1 1 0 01.46.46v.14a2 2 0 01.31 1.79.69.69 0 01-.32.4 1.57 1.57 0 01-1 .15c-.18 0-.26-.18-.36-.32a.94.94 0 01-.19-.69c0-.11.12-.22.06-.31s0-.09-.07-.13-.26-.22-.44-.17a.68.68 0 00-.43.37l-.08.1c-.12.27-.27.6-.11.86a2.28 2.28 0 00.57.83 1.83 1.83 0 00.38.26 2.24 2.24 0 001.9-.08c.05 0 .08-.11.13-.13a2 2 0 00.72-.85 2.54 2.54 0 00.37-1.68 4.43 4.43 0 00-.18-.65 2.51 2.51 0 00-1-1.21 3.75 3.75 0 00-.78-.38 2.33 2.33 0 00-1.37.14 3.42 3.42 0 00-.79.22 3.73 3.73 0 00-.65.35 4.84 4.84 0 00-1.16 1.5 2.35 2.35 0 00-.25 1.05 4.81 4.81 0 00.24 2c0 .05.08.08.11.13s.09.42.19.6a.65.65 0 01.09.16 3.49 3.49 0 00.15.34c.08.19.31.29.38.48a9.18 9.18 0 00.3.93 1.27 1.27 0 01.2.53.78.78 0 00.09.24.53.53 0 010 .18v-.06a2 2 0 01-.07.81c-.07.2-.18.38-.26.58s-.09.23-.15.33a2.14 2.14 0 000 2.54c.21.21.63 0 .69-.3a2.3 2.3 0 01.33-.77 2.9 2.9 0 00.12-.57c.07-.26.22-.63.56-.54a16.83 16.83 0 01.64 1.58.87.87 0 00.25.35c.2.11.57.16.64-.09.27-.85-.25-1.66-.39-2.52a2.89 2.89 0 01.11-1.24 4.83 4.83 0 011.09-1.79c.09-.12.14-.12.37-.39s.43-.24.67-.33a3.57 3.57 0 01.47-.11 2.59 2.59 0 011 0 1.42 1.42 0 01.53.2 2.82 2.82 0 00.63.43c.16.05.26.18.4.25a1 1 0 01.49.81c.08.39.09.69.16 1.07a2.28 2.28 0 01-.05 1 1.68 1.68 0 01-.64.94 1.17 1.17 0 01-.72.32c-.83 0-1.6-.06-2-.94a2 2 0 01-.26-1.12c0-.13 0-.34.12-.44s.12-.24.17-.29a2.53 2.53 0 01.62-.35.52.52 0 01.42-.06 1.35 1.35 0 01.81.58 5.92 5.92 0 01.19.95c.06.16.26.19.45.15s.11 0 .16-.1a.94.94 0 000-.09c.08-.13.2-.22.23-.38a.33.33 0 000-.24c-.05-.08-.19-.21-.11-.26s-.06-.19-.08-.31c-.06-.51-.5-.8-.87-1.09a2 2 0 00-.47-.22.77.77 0 00-.34-.07 3.25 3.25 0 00-.54 0 1.67 1.67 0 00-.65.33 1.47 1.47 0 00-.3.31 3.11 3.11 0 00-.31.43 2.84 2.84 0 00-.31.84v.74a.57.57 0 000 .34c.08.22.19.41.26.63a.31.31 0 00.07.14m-51.88 34.87h-4.67l-1.32-18.34h-1.86l-1.3 18.34h-4.65v-2H71l1.3-18.34h8.51l1.31 18.34h1.34zm-4-.7h3.32v-.61h-1.31l-1.31-18.34H73l-1.3 18.34h-1.34v.61h3.29L75 155.43h3.16z"/><path d="M79.37 166.61h-5.6v-2h5.6zm-4.9-.7h4.2v-.61h-4.2zm4.9-1.91h-5.6v-2h5.6zm-4.9-.7h4.2v-.62h-4.2zm-16.34 11.17h-1.31a4.28 4.28 0 01-4.28-4.28V158.4a4.28 4.28 0 014.28-4.28h1.31a4.28 4.28 0 014.28 4.28v1.66h-3.32v-3a1 1 0 00-1-1h-1.27a1 1 0 00-1 1v14.44a1 1 0 001 1h1.31a1 1 0 001-1v-4.28h3.32v3a4.28 4.28 0 01-4.32 4.25zm-1.31-19.65a3.59 3.59 0 00-3.58 3.58v11.79a3.58 3.58 0 003.58 3.58h1.31a3.58 3.58 0 003.58-3.58v-2.27h-1.92v3.58a1.66 1.66 0 01-1.5 1.65h-1.63a1.66 1.66 0 01-1.5-1.65v-14.41a1.66 1.66 0 011.52-1.65h1.59a1.66 1.66 0 011.52 1.65v2.27h1.92v-1a3.59 3.59 0 00-3.58-3.58z"/><path d="M57.17 166.61h-5.94v-2h5.94zm-5.24-.7h4.54v-.61h-4.54zm5.24-1.91h-5.94v-2h5.94zm-5.24-.7h4.54v-.61h-4.54zm76.46 11.17v-2h1.31v-16.34h-1.31v-2h11.18v5.93h-3.32v-3.92H133V162h5.24v4.62H133v5.85h3.22v-3.93h3.32v5.94zm.7-1.32v.62h9.78v-4.54H137v3.93h-4.63v-7.26h5.25v-3.22h-5.25v-7.25H137v3.92h1.92v-4.53h-9.78v.61h1.31v17.72z"/><path d="M135.64 165.29h-3.32v-1.66h.36v-.35h3zm-2.61-.7h1.91V164H133zM109 174.47v-2h1.31v-16.34H109v-2h11.18v5.93h-3.32v-3.92h-3.23V162h5.24v4.62h-5.24v5.85h3.23v-3.93h3.32v5.94zm.7-1.32v.62h9.78v-4.54h-1.92v3.93h-4.63v-7.26h5.24v-3.22h-5.24v-7.25h4.63v3.92h1.92v-4.53h-9.78v.61h1.3v17.72z"/><path d="M116.23 165.29h-3.32v-1.66h.35v-.35h3zm-2.62-.7h1.92V164h-1.92zM102 174.47h-4.58v-6.87a1 1 0 00-1-1h-2.23v7.86h-4.63v-2h1.31v-16.33h-1.31v-2h6.9a4.29 4.29 0 014.28 4.29v1.33a4.26 4.26 0 01-4.28 4.25h-2.27v.62h2.27a4.31 4.31 0 014.28 4.32v3.55H102zm-3.91-.7h3.21v-.61H100v-4.25a3.6 3.6 0 00-3.58-3.62h-3v-2h3a3.57 3.57 0 003.58-3.54v-1.33a3.59 3.59 0 00-3.58-3.59h-6.2v.61h1.31v17.73h-1.27v.61h3.23v-7.86h3.12a1.71 1.71 0 011.51 1.68z"/><path d="M96.46 162.68h-3v-7.25h3a1.66 1.66 0 011.66 1.66V161a1.66 1.66 0 01-1.66 1.68zm-2.27-.7h2.27a1 1 0 001-1v-3.93a1 1 0 00-1-1h-2.27zm66.58 12.49h-4.62v-6.87a1 1 0 00-1-1h-2.26v7.86h-4.59v-2h1.31v-16.33h-1.31v-2h6.89a4.3 4.3 0 014.29 4.29v1.33a4.27 4.27 0 01-4.29 4.24h-2.26v.62h2.26a4.31 4.31 0 014.29 4.32v3.55h1.29zm-3.92-.7h3.22v-.61h-1.29v-4.25a3.61 3.61 0 00-3.59-3.62h-3v-2h3a3.57 3.57 0 003.59-3.54v-1.33a3.59 3.59 0 00-3.59-3.59H149v.61h1.31v17.73H149v.61h3.23v-7.86h3.12a1.7 1.7 0 011.5 1.68z"/><path d="M155.2 162.68h-3v-7.25h3a1.66 1.66 0 011.66 1.66V161a1.66 1.66 0 01-1.66 1.68zm-2.27-.7h2.27a1 1 0 001-1v-3.93a1 1 0 00-1-1h-2.27z"/></g></svg>