<svg xmlns="http://www.w3.org/2000/svg" viewBox="0 0 212 212"><g data-name="レイヤー 2"><path fill="#f6f6f6" d="M0 0h212v212H0z"/><path d="M107.09 103.43a28.53 28.53 0 0013.35-3.77 28.93 28.93 0 007.87-6.74 28.77 28.77 0 10-48-31.54 28.43 28.43 0 00-.94 26.86h.4a32 32 0 0127.33 15.19"/><path d="M79.78 149.27a28.77 28.77 0 1124.11-44.38 32.06 32.06 0 000 31.23 28.46 28.46 0 01-24.1 13.15"/><path d="M160 127.49a28.8 28.8 0 01-27.76 21.33 28.91 28.91 0 01-25-14.39 28.56 28.56 0 01-.67-27.47 32 32 0 0027.05-15.61A28.74 28.74 0 01160 127.49M151.66 165v-10.92l-90.07 3.93v3.05l90.07 3.94z"/></g></svg>