<svg xmlns="http://www.w3.org/2000/svg" viewBox="0 0 212 212"><defs><style>.cls-1{fill:#fff}</style></defs><g id="レイヤー_2" data-name="レイヤー 2"><g id="contents"><path id="SVGID" class="cls-1" d="M0 0h212v212H0z"/><path id="SVGID-2" data-name="SVGID" d="M18.5 18.5h175v175h-175z"/><path class="cls-1" d="M64.11 57.12v1.08h3.8v-1.09h-3.8m0-1.07h3.8v-6.49h3.23v1.08h-1.07v14.06h1.07v1.07h-3.23v-6.48h-3.8v6.48h-3.24v-1.07H62V50.63h-1.13v-1.08h3.24zm26.78-6.49h4.33v1.08h-1.08v5.4h1.08v1.08h-1.08v1.09h1.08v1.08h-1.08v5.4h1.08v1.08h-4.33v-1.08h1.08v-5.4h-1.08V58.2h1.08v-1.09h-1.08v-1.08h1.08v-5.4h-1.08v-1.08zM81.7 73.67h4.33v1.08h-1.08v5.4h1.08v1.09h-1.08v1.08h1.08v1.08h-1.08v5.41h1.08v1.08H81.7v-1.08h1.08V83.4H81.7v-1.08h1.08v-1.08H81.7v-1.09h1.08v-5.4H81.7v-1.08zm36.4-16.56v1.08h2.17a3.24 3.24 0 013.24 3.25v3.24h1.07v1.08h-3.23v-5.4a1.09 1.09 0 00-1.08-1.08h-2.17v6.48h-3.25v-1.08h1.08V50.62h-1.08v-1.08h3.25V56"/><path class="cls-1" d="M118.1 57.11h2.17a3.24 3.24 0 003.24-3.24v-3.24h1.07v-1.08h-3.23V55a1.08 1.08 0 01-1.08 1h-2.17m30.96 25.23h-3.24v1.08h3.24zM148 88.8a1.08 1.08 0 001.08-1.08v-4.33h-3.24v4.33a1.07 1.07 0 001.07 1.08H148zm1.08-8.65v-4.33a1.08 1.08 0 00-1.08-1.08h-1.08a1.07 1.07 0 00-1.07 1.08v4.33zm-2.17 9.74a3.24 3.24 0 01-3.24-3.25v-9.73a3.23 3.23 0 013.24-3.24H148a3.24 3.24 0 013.26 3.24v9.73a3.26 3.26 0 01-3.26 3.25zm-73.26 69.32h7.58v1.08h-7.58zm0 2.16h7.58v1.09h-7.58zm5.41-10.81v-2.16a1.09 1.09 0 00-1.06-1.08h-1.1a1.09 1.09 0 00-1.09 1.08v2.16zm-3.25 1.07v2.17a1.08 1.08 0 001.08 1.08H78a1.08 1.08 0 001.08-1.08v-1.08h2.17A3.25 3.25 0 0178 156h-1.1a3.24 3.24 0 01-3.26-3.24v-3.25a3.25 3.25 0 013.26-3.25H78a3.25 3.25 0 013.25 3.25v2.15zm73.25-99.91a1.09 1.09 0 00-1.06-1.09h-1.08a1.08 1.08 0 00-1.08 1.09v5.4a1.08 1.08 0 001.08 1.08H148a1.08 1.08 0 001.09-1.08zm-2.17 7.56a3.24 3.24 0 01-3.25-3.28v-3.21a3.24 3.24 0 013.25-3.24H148a3.24 3.24 0 013.25 3.24V56a3.24 3.24 0 01-3.25 3.28zm-3.25 3.24h7.58v1.07h-7.58zm0 2.16h7.58v1.08h-7.58zm-42.21 59.4a1.1 1.1 0 00-1.09-1.09h-1.07a1.1 1.1 0 00-1.09 1.09v5.4a1.08 1.08 0 001.08 1.08h1.09a1.08 1.08 0 001.08-1.08zm-2.16 7.56a3.25 3.25 0 01-3.27-3.23v-3.25a3.25 3.25 0 013.26-3.25h1.07a3.24 3.24 0 013.25 3.25v3.25a3.24 3.24 0 01-3.25 3.23zm-3.26 3.25h7.59v1.07h-7.59zm0 2.16h7.59v1.08h-7.59zM80.64 100a1.09 1.09 0 00-1.08-1.1h-1.08a1.1 1.1 0 00-1.09 1.1v5.39a1.09 1.09 0 001.08 1.09h1.09a1.08 1.08 0 001.08-1.09zm-2.16 7.57a3.25 3.25 0 01-3.25-3.24V101a3.26 3.26 0 013.25-3.25h1.08a3.26 3.26 0 013.25 3.25v3.26a3.25 3.25 0 01-3.25 3.24zm-3.25 3.2h7.58v1.08h-7.58zm0 2.16h7.58V114h-7.58zm-9.04-37.09a1.09 1.09 0 00-1.09-1.09H64v5.41h2.17zm2.17 0v4.32h2.16v-5.41h-1.08a1.08 1.08 0 00-1.08 1.09m-2.17 5.4H64v1.08h2.17zm2.17 1.08h2.16v-1.08h-2.16zm-1.09-7.83a3.25 3.25 0 012.16-.82h4.34v1.08h-1.09v14.06h1.09v1.08h-3.25V83.4h-2.16v4.32h-2.17V83.4H64v6.49h-3.23v-1.08h1.09V74.75h-1.09v-1.08h4.33a3.24 3.24 0 012.17.82m67.69 15.4V74.75h1.07v-1.08h-3.24v10.15L129 73.67h-3.14v1.08h1.09V88.8h-1.09v1.09h3.25V79.7l3.8 10.19h2.05zM69.43 102.1V101a3.25 3.25 0 00-3.25-3.24h-1.07a3.26 3.26 0 00-3.26 3.24v9.75a3.26 3.26 0 003.26 3.25h1.07a3.25 3.25 0 003.25-3.24v-2.16h-2.17v3.24a1.06 1.06 0 01-1.08 1.07H65.1a1.07 1.07 0 01-1.1-1.07V100a1.09 1.09 0 011.09-1.09h1.07a1.08 1.08 0 011.1 1.09v2.15z"/><path class="cls-1" d="M60.77 106.43h4.33v1.09h-4.33zm0-2.16h4.33v1.08h-4.33zm30.67 8.65h3.24v-6.48h3.25v1.08h-1.08v6.49h-8.66v-1.09h1.08V98.86h-1.08v-1.08h4.32v1.08h-1.07v14.06zm13.89 0h3.25v-6.48h3.25v1.08h-1.09v6.49h-8.66v-1.09h1.09V98.86h-1.09v-1.08h4.33v1.08h-1.08v14.06zm13.59 48.45h3.24v-6.48h3.25v1.08h-1.08v6.49h-8.66v-1.09h1.08v-14.05h-1.08v-1.09H120v1.09h-1.08v14.05zM99.33 82.32a1.07 1.07 0 001.07-1.08h-2.16a1.08 1.08 0 00-1.08 1.08zm-4.13 1.07a3.25 3.25 0 013.25-3.23h2.16v-5.42h-3.24V78H95.2v-4.33h7.58v6.49a3.23 3.23 0 01-3.24 3.23h-2.17v5.41h3.24v-4.32h2.17v5.41H95.2zm15.42 3.24h7.58v1.09h-7.58zm0 2.17h7.58v1.09h-7.58zm7.59-15.13v6.48a3.27 3.27 0 01-3.21 3.26h-1.08a3.24 3.24 0 01-3.24-3.25v-6.49h2.16v7.57a1.08 1.08 0 001.08 1.07H115a1.09 1.09 0 001-1.07v-7.57zm-5.89 56.88h2.16v-1.07h-2.16zm1.08 7.58h-4.33v-1.08h1.08V123h-1.08v-1.08h8.66v4.32h-2.16V123h-3.25v5.4h4.34v3.25h-4.34v5.41h1.08zm22.35-32.65h-3.24v1.09h3.24zm-1.09 7.58a1.1 1.1 0 001.09-1.1v-4.31h-3.26V112a1.1 1.1 0 001.08 1.1h1.09zm-.88-14.28a1.06 1.06 0 00-1.06 1.08v4.33h5.4v6.49a3.24 3.24 0 01-3.26 3.24h-1.09a3.23 3.23 0 01-3.24-3.24V101a3.25 3.25 0 013.24-3.25h1.09a3.26 3.26 0 013.26 3.25v1H136v-2.14a1.08 1.08 0 00-1.09-1.08zm-67.59 48.54h-1.08v-1.08h4.33v1.08h-1.08v11.89a3.27 3.27 0 01-3.26 3.25H64a3.24 3.24 0 01-3.25-3.24v-4.33H64V156h-1.06v4.32a1.08 1.08 0 001.06 1.05h1.1a1.08 1.08 0 001.09-1.08zm29.09 8.57h-2.16v5.41h1.07a1.08 1.08 0 001.09-1.09zm-6.5 4.32a1.08 1.08 0 001.08 1.09H91v-5.41h-2.22zm4.34-5.4h2.16v-1.08h-2.16zM91 153.74h-2.22v1.07H91zm6.5 5.4a3.25 3.25 0 01-3.26 3.25h-4.37a3.24 3.24 0 01-3.25-3.25v-11.89h-1.09v-1.08h3.25v6.49H91v-6.49h2.17v6.49h2.16v-6.49h3.25v1.08h-1.13zm49.38-5.33h-2.16v1.07h2.16zm4.34-7.58v1.08h-1.09l-1.32 8.69h-1.93v5.41H148v1.09h-4.33v-1.09h1.08V156h-1.9l-1.34-8.65h-1.09v-1.08h3.23l1 6.49H147l1-6.49zm-19.53 6.5h2.16a1.09 1.09 0 001.09-1.09v-3.24a1.08 1.08 0 00-1.09-1.08h-2.16zm2.16-6.5a3.26 3.26 0 013.25 3.26v1.09a3.23 3.23 0 01-3.25 3.22h-2.16v1.08h2.16a3.27 3.27 0 013.25 3.27v3.23h1.07v1.08h-3.24v-5.39a1.11 1.11 0 00-1.08-1.11h-2.16v6.5h-3.25v-1.08h1.08v-14.06h-1.08v-1.09zm-14.94-39.79h2.17v-1.09h-2.17zm3.26 6.48v-3.24h2.16V114h-8.66v-1.09h1.08V98.86h-1.08v-1.07h8.66v4.32h-2.16v-3.25h-3.26v5.42h4.34v3.23h-4.34v5.41zm23.64-6.48H148v-1.09h-2.16zm3.25 6.48v-3.24h2.16V114h-8.66v-1.09h1.08V98.86h-1.08v-1.07h8.66v4.32h-2.16v-3.25h-3.25v5.42h4.33v3.23h-4.33v5.41zm-43.53 40.89v1.08h2.17v-1.09h-2.17m3.26 7.57v-3.25H111v4.34h-8.66v-1.09h1.08v-14.05h-1.08v-1.08H111v4.32h-2.16v-3.24h-3.26v5.41h4.34V156h-4.34v5.41zM60.77 45.16h90.45v.56H60.77zm0 24.18h90.45v.55H60.77zm0 24.12h90.45v.56H60.77zm0 24.11h90.45v.56H60.77zm0 24.13h90.45v.56H60.77zm0 24.17h90.45v.57H60.77zm0-125.91h3.32v3.31h-3.32zm7.26 0h3.32v3.31h-3.32zm7.26 0h3.32v3.31h-3.32zm7.26 0h3.32v3.31h-3.32zm7.26 0h3.32v3.31h-3.32zm7.27 0h3.31v3.31h-3.31zm7.26 0h3.32v3.31h-3.32zm7.26 0h3.32v3.31h-3.32zm7.26 0h3.32v3.31h-3.32zm7.26 0h3.32v3.31h-3.32zm7.26 0h3.32v3.31h-3.32zm7.27 0h3.32v3.31h-3.32zm7.25 0h3.32v3.31h-3.32zM60.77 168.73h3.32v3.31h-3.32zm7.26 0h3.32v3.31h-3.32zm7.26 0h3.32v3.31h-3.32zm7.26 0h3.32v3.31h-3.32zm7.26 0h3.32v3.31h-3.32zm7.27 0h3.31v3.31h-3.31zm7.25 0h3.32v3.31h-3.32zm7.27 0h3.32v3.31h-3.32zm7.26 0h3.32v3.31h-3.32zm7.26 0h3.32v3.31h-3.32zm7.26 0h3.32v3.31h-3.32zm7.27 0h3.32v3.31h-3.32zm7.25 0h3.32v3.31h-3.32zM81.64 128a2.72 2.72 0 00.39-.61c.07-.26-.16-.5-.18-.77 0-.43.39-.73.79-.84.37.12.83.1 1.1.42s.34.61.07.85-.64.41-.7.78a.71.71 0 00.32.75.41.41 0 00.34 0 1.91 1.91 0 00.6-.4 1.39 1.39 0 01.36-.29c.11 0 .24-.14.36 0a.94.94 0 01.23.79 2 2 0 01-.34.9l-.13.15a.68.68 0 00-.1.46.67.67 0 00.31.5.83.83 0 001-.31c.07-.1 0-.23.12-.33a4.79 4.79 0 00.31-.39 1.62 1.62 0 00.3-.67 1.72 1.72 0 00-.09-.72c0-.07 0-.14-.07-.21a3.45 3.45 0 00-.5-1.3 5.21 5.21 0 00-.47-.47 6.88 6.88 0 00-.82-.8 1.39 1.39 0 00-.21-.11c-.28-.14-.47-.4-.77-.46a1.93 1.93 0 00-.42 0c-.19 0-.44-.23-.33-.39a.72.72 0 01.61-.32h.26a2.17 2.17 0 01.43.08 3.35 3.35 0 01.44.07 3.57 3.57 0 01.74.41 3.28 3.28 0 011 .79 6.11 6.11 0 011 1.43c.13.3.21.6.32.92s0 .49.15.73c0 0 0 .12.11.12s.22-.2.37-.25a.5.5 0 01.59.35.58.58 0 010 .37 2.55 2.55 0 01-.54.93 3.09 3.09 0 01-.57.4 1.85 1.85 0 00-.47.41.6.6 0 00.2.84s.06.08.12.06.11 0 .16 0h.06c.16.26.42.47.43.78a1.49 1.49 0 010 .52.54.54 0 01-.13.25c-.21.18-.38.42-.64.49a.68.68 0 01-.64-.15 7.62 7.62 0 01-.77-1.17 1 1 0 00-.35-.33 2 2 0 01-.24 0s0-.07-.09-.07a.74.74 0 00-.47.18v.75c-.06.48.19 1-.12 1.34a1.31 1.31 0 01-.53.34.23.23 0 01-.16 0 2.47 2.47 0 01-.93-.25s-.08-.07-.12-.09a1.13 1.13 0 01-.51-.57.71.71 0 01.11-.6 3.7 3.7 0 01.59-.73c.15-.17.35-.25.48-.42a.32.32 0 00.1-.26.46.46 0 00-.16-.33.53.53 0 00-.32-.1 1.45 1.45 0 00-.42.12.73.73 0 00-.23.16.53.53 0 01-.39.16.4.4 0 01-.28-.07c-.25-.17-.5-.49-.34-.81s.3-.35.42-.56a1.14 1.14 0 00.1-.85c0-.15-.22-.18-.35-.18a2.26 2.26 0 00-.49.14c-.12 0-.14.16-.23.23s-.37.22-.45.44c0 .06-.1.06-.13.13a3.29 3.29 0 00-.33 1 1.09 1.09 0 010 .31 1.84 1.84 0 00.06 1.25 6.45 6.45 0 001 1.61c.11.12.24.26.43.23a3.37 3.37 0 001.1.56 1.12 1.12 0 01.51.34.35.35 0 010 .33.44.44 0 01-.46.21c-.24 0-.43-.16-.69-.15a.52.52 0 01-.29-.14 7.59 7.59 0 00-1-.62 3.73 3.73 0 01-.85-.79c-.06-.06-.16-.08-.21-.16a6.35 6.35 0 01-.83-1.42.72.72 0 010-.25 4.79 4.79 0 00.06-1.25.26.26 0 00-.27-.25 1 1 0 00-.41.13.29.29 0 01-.3 0 .65.65 0 01-.29-.78c.12-.31.53-.44.83-.68a3.78 3.78 0 011-.49.85.85 0 00.4-.37.71.71 0 000-.36.29.29 0 00-.24-.2c-.31 0-.69-.07-.81-.39s0-.37.06-.58a.55.55 0 01.22-.32c.27-.21.59-.5 1-.3 0 0 0 .06.06.08a1 1 0 01.53.85.5.5 0 00.6.35c.07 0 .13-.09.16-.15m68.32-1.4a6.18 6.18 0 00-1.72 0 2.76 2.76 0 00-.54.16c-.48.13-1 0-1.45.16a.83.83 0 01-.21.06 14.23 14.23 0 01-2.26 0 .43.43 0 01-.31-.14 1.11 1.11 0 01-.16-.44c-.26-.45.27-.87.7-.92a7.35 7.35 0 011.1-.17 31.75 31.75 0 014.25.1h.78a.6.6 0 00.5-.36 2 2 0 00.09-.6h-.13a1.69 1.69 0 00-.81-.3 13.61 13.61 0 00-2 0c-.24 0-.48.06-.72.09-.58.08-1.14 0-1.72.08h-1.08a5.24 5.24 0 00-1.31.12.61.61 0 00-.41.47c-.08.26-.06.53-.13.8a3.23 3.23 0 000 1.35.88.88 0 00.43.73.37.37 0 00.2.09 7.79 7.79 0 001.27.07c.31 0 .71-.17 1-.22a2 2 0 01.8 0c.84.16 1.47-.17 2.3 0a2.85 2.85 0 00.92.08c.11 0 .27 0 .29.15a2.24 2.24 0 010 1.12.28.28 0 01-.25.12 9 9 0 01-2.43-.1c-.45-.09-.91-.09-1.37-.14s-1.12-.12-1.69-.16a2.63 2.63 0 00-.84 0 .52.52 0 00-.28.09 1.44 1.44 0 00-.37 1c0 .27-.1.53-.1.82a3.12 3.12 0 00.16.88.71.71 0 00.33.46c.77.38 1.61.08 2.52.14.7.05 1.37 0 2.05 0s1.3 0 1.95.1a.31.31 0 01.18.18 1 1 0 010 .73.36.36 0 01-.3.29.43.43 0 00-.16 0 .87.87 0 01-.31.07 20.84 20.84 0 01-2.09 0c-.46 0-.92-.05-1.38-.11a18.83 18.83 0 00-2.25 0 .62.62 0 00-.53.35 1.19 1.19 0 00-.08.6c0 .45-.18 1.05.27 1.29a.58.58 0 00.54-.06c.38-.23.18-.7.29-1.07.48 0 1.06-.23 1.46.12a1.56 1.56 0 00.05.86.4.4 0 00.43.26.67.67 0 00.45-.26 2.24 2.24 0 00.24-.92c0-.12.17 0 .26-.07.25-.06.5.09.77 0 .13.21 0 .45.1.67a.63.63 0 00.21.35c.12.06.23.16.37.12a.65.65 0 00.38-.58c.05-.46.43-.84.88-.65a.54.54 0 01.29.22c.1.16 0 .35.09.52a.55.55 0 00.33.32.61.61 0 00.46 0 .64.64 0 00.28-.45c.05-.31.11-.59.13-.88a8.6 8.6 0 000-2.21c0-.08-.1-.14-.16-.21s-.13-.29-.25-.4a.61.61 0 00-.66-.07c-.13.05-.27-.08-.42-.09a4 4 0 00-.77 0 35.33 35.33 0 01-4.11-.12c-.34 0-.83-.06-.93-.48a.25.25 0 010-.17c.15-.21.13-.47.34-.63s.59 0 .9-.08l.26-.05a3 3 0 011 .06h.65c.62.12 1.18.07 1.8.23h.43c.14 0 .56 0 .85.08v.09c.36 0 .81 0 1-.32a2.16 2.16 0 00.33-1.38 10.38 10.38 0 00-.17-1.53c0-.23-.24-.32-.4-.44s-.2 0-.3 0m-86.66-1c-.16.19-.34.34-.35.59a2.94 2.94 0 00.08 1c0 .13.18.2.2.27s.14.12.19.2l.18.28a2 2 0 00.72.43 5.16 5.16 0 001.54.43 1.52 1.52 0 00.6 0c.11 0 .24.07.34 0 .32-.07.59 0 .92-.1a2.51 2.51 0 001-.62 1.52 1.52 0 00.34-.33 2.13 2.13 0 00.43-2 1.21 1.21 0 00-.18-.38c-.12-.15-.16-.36-.33-.46a.78.78 0 00-.32-.15.56.56 0 00-.49 0c-.2.16-.19.2-.27.24s-.18.14-.19.21c0 .4 0 .79-.12 1.2 0 .13 0 .24-.07.38a.86.86 0 01-.37.34 1.69 1.69 0 01-1.15.08c-.26-.08-.6-.07-.8-.26a1 1 0 01-.29-.38 1.67 1.67 0 010-.63c0-.18.15-.38.08-.54s-.16-.36-.37-.38a3.07 3.07 0 00-.74 0c-.2 0-.42.13-.46.32a.53.53 0 01-.08.17m7.83 8.91c.05.16 0 .35 0 .51a3.19 3.19 0 01-.09 1.44.58.58 0 01-.33.36c-.35.11-.43-.35-.42-.62a18 18 0 000-2.75c-.07-.58 0-1.16-.12-1.75a.42.42 0 00-.11-.22.33.33 0 00-.43 0c-.16.13-.16.36-.22.54a2.14 2.14 0 00-.08.76c0 .74-.09 1.47 0 2.2a10.47 10.47 0 010 1.77.43.43 0 01-.23.39.24.24 0 01-.12 0 .56.56 0 01-.32-.41 1.7 1.7 0 010-.39c.07-.66 0-1.32 0-2v-.51a13.74 13.74 0 000-2.22c0-.11-.08-.23-.21-.23-.41 0-.4.49-.47.79s0 .29-.09.43a15.66 15.66 0 000 1.68 15.86 15.86 0 010 2.67.87.87 0 01-.17.27s-.07.1-.14.07-.14-.16-.22-.24a1.28 1.28 0 01-.14-.37c0-.13 0-.27.06-.4.06-.88 0-1.75 0-2.63v-1.17c0-.09-.07-.2-.08-.29a1.8 1.8 0 00-.16-.71.2.2 0 00-.26-.11.78.78 0 00-.37.41 5.27 5.27 0 000 .57c0 .14-.17.24-.2.39a3 3 0 00.06.79c0 .54-.17 1.09 0 1.61.07.18 0 .39 0 .6-.07.43 0 .84-.08 1.27 0 .12-.14.27-.27.24s-.25-.16-.4-.17v-.07a5.72 5.72 0 010-1.17 4.2 4.2 0 01.06-.86 10.14 10.14 0 00.09-2v-.85a.61.61 0 00-.55-.53.77.77 0 00-.59.33 1.31 1.31 0 00-.15.46v.33c0 .11-.05.5-.1.76v.24c0 1-.08 2-.08 3a.31.31 0 010 .07.79.79 0 00-.34.21h-.1a1 1 0 01-.28-.5s0-.1-.06-.08 0-.21 0-.31c0-.78.06-1.54.11-2.32v-.46a2.52 2.52 0 00-.16-1.49s0-.08-.08-.05c-.14-.23-.48-.13-.65 0s-.21.46-.28.73c-.12.48-.19.93-.3 1.43s0 .89-.07 1.34a1.42 1.42 0 01-.07.22 4.21 4.21 0 00.06.94c0 .05-.06.08-.09.1s-.23.27-.36.18-.15-.36-.29-.53 0-.1 0-.14a3.1 3.1 0 01-.09-1 7.36 7.36 0 000-1c0-.65 0-1.06.07-1.47s0-.77 0-1.17a.73.73 0 01.11-.26c.08-.16.08-.36.2-.51s.2 0 .3-.1.07-.11.15-.12h1.42a4.39 4.39 0 001.03-.17h.16a.44.44 0 00.22-.53.75.75 0 00-.25-.33.82.82 0 00-.37-.16 1.82 1.82 0 01-.83-.28 5.16 5.16 0 01-1.07-1c-.06-.08-.23-.14-.26-.27-.07-.31 0-.64 0-1a1.25 1.25 0 01-.07-.47s.08-.07.09-.12c.08-.2.15-.4.24-.59s.27-.38.39-.59a2.29 2.29 0 01.18-.29 1.41 1.41 0 01.3-.34c.23-.15.42-.29.65-.42a.46.46 0 01.34-.07c.16 0 .3 0 .44.07s.28.24.42.35a1.33 1.33 0 01.19.14 2.32 2.32 0 001.21.6h.11a.5.5 0 00.35 0c.11-.08.24-.18.34-.27s0 .1 0 0a2.31 2.31 0 01.38-.52.88.88 0 01.49-.24 2.15 2.15 0 011.19.22 1.16 1.16 0 01.44.37 6.33 6.33 0 01.58.7 2.4 2.4 0 01.32 1 2.72 2.72 0 01-.56 1.63 1.66 1.66 0 01-.26.36 2.34 2.34 0 01-.55.38 7.49 7.49 0 01-.63.41c-.27.11-.56.17-.84.26a.94.94 0 00-.46.38c-.12.19.1.41.28.43a7.8 7.8 0 00.83.09c.53 0 1-.11 1.57-.13a2.51 2.51 0 00.6-.1.25.25 0 01.12 0c.21.06.29.26.41.42s0 .37 0 .55c0 .7.14 1.35.08 2 0 .23-.06.46-.1.7a2.48 2.48 0 000 .72m58.72-.4a3 3 0 00.78.94.8.8 0 00.38.19 3.07 3.07 0 00.53.07h.45a2.82 2.82 0 00.84-.08 6.77 6.77 0 00.75-.48c.09-.06-.13.14-.09.06a1.43 1.43 0 01.22-.26 2.27 2.27 0 00.45-.66 1.13 1.13 0 00.19-.36c0-.09.07-.17.09-.27a4 4 0 000-1.76 2.52 2.52 0 00-.17-.53c0-.09-.11-.19-.15-.28a15.65 15.65 0 01-.67-1.64 7.35 7.35 0 01-.25-1.15 1.37 1.37 0 01.07-.89 5.4 5.4 0 00.33-.77 1.78 1.78 0 01.19-.36 1.18 1.18 0 00.15-1.06.34.34 0 00-.54 0 1.05 1.05 0 00-.27.39c-.1.26-.06.53-.14.78a6.17 6.17 0 01-.19.61.33.33 0 01-.19.21.46.46 0 01-.6-.38 2.56 2.56 0 00-.53-1.54.34.34 0 00-.44 0 .55.55 0 00-.21.56c.05.16.09.31.14.46a6.66 6.66 0 01.43 1.11 3.13 3.13 0 01-.46 2.32 6.39 6.39 0 01-1.21.91s0 .13-.05.12-.3.1-.46.1a10.84 10.84 0 01-1.14 0 2.62 2.62 0 01-1-.4c-.3-.18-.44-.47-.75-.66a.34.34 0 01-.07-.17 1.57 1.57 0 00-.23-.61v-.28a5.84 5.84 0 01.15-1.24c.2-.16.33-.38.54-.54s.23-.24.39-.27a4.1 4.1 0 01.48-.1 1.78 1.78 0 01.89.1.8.8 0 01.38.37v.12a1.66 1.66 0 01.25 1.48.52.52 0 01-.26.33 1.44 1.44 0 01-.84.13c-.15 0-.21-.15-.3-.27a.72.72 0 01-.15-.57c0-.09.1-.18 0-.26s0-.06 0-.11-.22-.18-.37-.13a.52.52 0 00-.35.3l-.07.09c-.1.21-.22.49-.09.7a2.06 2.06 0 00.47.69 2.11 2.11 0 00.31.21 1.85 1.85 0 001.57-.06c.05 0 .08-.09.11-.11a1.54 1.54 0 00.6-.71 2.16 2.16 0 00.31-1.39c-.05-.18-.09-.35-.15-.52a2.06 2.06 0 00-.83-1 2.88 2.88 0 00-.65-.34 2.08 2.08 0 00-1.12.13 2.69 2.69 0 00-.67.19 2.46 2.46 0 00-.53.28 3.87 3.87 0 00-1 1.24 1.84 1.84 0 00-.2.86 4 4 0 00.2 1.63s.06.07.08.1.07.34.16.49a.66.66 0 01.08.13 2 2 0 00.12.29c.07.16.25.23.31.4s.13.52.25.76a.93.93 0 01.16.44 1.67 1.67 0 00.08.2.32.32 0 010 .14 1.56 1.56 0 01-.06.68 4 4 0 01-.21.47 1.34 1.34 0 01-.13.27 1.8 1.8 0 000 2.1c.18.18.53 0 .57-.25a1.71 1.71 0 01.28-.63 2 2 0 00.1-.47c.06-.22.18-.52.46-.44.27.39.29.88.53 1.29a.58.58 0 00.21.29c.16.1.46.14.53-.07.21-.71-.21-1.36-.32-2.07a2.3 2.3 0 01.09-1 4 4 0 01.9-1.47c.07-.1.11-.1.3-.33a1.28 1.28 0 01.55-.26 2.6 2.6 0 01.4-.1 2.33 2.33 0 01.79 0 1.09 1.09 0 01.44.17c.18.11.32.29.52.35s.21.15.32.2a.86.86 0 01.41.67c.07.33.08.57.13.89a1.92 1.92 0 010 .79 1.39 1.39 0 01-.53.78.92.92 0 01-.6.26c-.69 0-1.32-.05-1.62-.77a1.65 1.65 0 01-.22-.92.56.56 0 01.11-.37s.09-.19.14-.24a1.92 1.92 0 01.5-.29.53.53 0 01.35-.05 1.12 1.12 0 01.67.49c.13.24.07.52.16.78s.22.15.37.12.1 0 .14-.08a.19.19 0 010-.07c.06-.11.16-.19.19-.31a.25.25 0 000-.21c0-.06-.15-.18-.09-.21s0-.16-.06-.26c-.06-.42-.42-.65-.72-.9a1.92 1.92 0 00-.39-.17.56.56 0 00-.29-.06 2.16 2.16 0 00-.44 0 1.42 1.42 0 00-.54.26 2 2 0 00-.25.26c-.09.12-.18.23-.26.36a2.38 2.38 0 00-.25.69v.62a.5.5 0 000 .27c.06.19.16.34.21.53l.07.11"/></g></g></svg>